<svg width="390" height="164" viewBox="0 0 390 164" fill="none" xmlns="http://www.w3.org/2000/svg">
<path d="M102.049 85.6794C111.368 57.2001 126.134 50.2759 131.399 48.6503C128.797 42.6895 123.048 38.234 117.299 38.4146L117.541 37.9329H117.299L117.541 37.6921L117.783 36.7287L118.509 36.4879C126.376 36.0062 136.906 25.8307 138.54 14.3908L139.024 14.15H139.508V14.3908H139.992C139.024 20.3516 140.718 26.2522 144.289 30.5271C146.649 33.3569 150.703 35.2837 153.85 35.5245L154.092 36.7287H153.366C148.101 37.2104 141.929 41.967 137.874 48.5901C143.139 50.5168 146.225 56.899 147.194 67.3154C147.436 75.3835 146.467 83.9333 145.983 87.7265C145.257 89.8339 145.015 92.2423 144.773 94.8313C142.655 106.934 140.476 120.24 135.696 131.379C130.673 144.444 124.984 151.067 114.939 151.79C109.19 152.272 103.259 150.586 100.173 147.033C91.0956 135.413 95.3921 106.211 102.109 85.559L102.049 85.6794Z" fill="black"/>
<path d="M139.508 14.2097V14.4505H139.992C139.024 20.4113 140.718 26.3119 144.289 30.5868C146.649 33.4166 150.703 35.3433 153.85 35.5842L154.092 36.7884H153.366C148.101 37.2701 141.929 42.0267 137.874 48.6497C143.139 50.5765 146.225 56.9587 147.194 67.375C147.436 75.4432 146.467 83.993 145.983 87.7862C145.257 89.8936 145.015 92.302 144.773 94.891C142.655 106.993 140.476 120.3 135.696 131.438C130.673 144.504 124.984 151.127 114.939 151.85C114.273 151.85 113.668 151.91 113.002 151.91C107.919 151.91 102.896 150.224 100.112 147.093C91.035 135.472 95.3316 106.271 102.049 85.6186C111.368 57.1393 126.134 50.2152 131.399 48.5895C128.857 42.8094 123.35 38.3538 117.783 38.3538C117.662 38.3538 117.48 38.3538 117.359 38.3538L117.601 37.8722H117.359L117.601 37.6313L117.843 36.668L118.57 36.4271C126.437 35.9454 136.966 25.77 138.6 14.3301L139.084 14.0892H139.568M143.563 10.1756H138.056L137.208 10.5971L136.724 10.8379L134.848 11.8013L134.546 13.9086C133.033 24.0841 123.653 32.2124 118.267 32.5135H117.722L117.238 32.6941L116.512 32.9349L114.394 33.6575L113.91 35.6444L107.556 41.9664H111.005L110.642 42.7492L117.48 42.4481C117.48 42.4481 117.662 42.4481 117.722 42.4481C120.385 42.4481 123.29 44.134 125.468 46.723C122.503 48.2283 118.993 50.5765 115.362 54.2493C108.161 61.4142 102.351 71.5897 98.1758 84.4145C92.4874 101.936 85.8306 135.412 96.905 149.622H96.9655L97.026 149.802C100.415 153.716 106.345 156.004 112.942 156.004C113.668 156.004 114.455 156.004 115.181 155.884C129.099 154.92 135.211 143.781 139.387 132.944C143.986 122.106 146.286 109.281 148.283 97.9617L148.706 95.6135V95.4329V95.2522C148.948 92.6632 149.13 90.6763 149.735 89.0506L149.856 88.6894V88.2679C150.582 82.849 151.369 74.7809 151.127 67.2546V67.1342V67.0138C150.28 57.6812 147.738 51.1184 143.563 47.4455C146.649 43.7125 150.401 41.1235 153.487 40.7622H158.933L157.965 35.9454L157.723 34.7412L157.118 31.7307L154.032 31.4899C152.035 31.3093 149.009 29.9847 147.314 27.9375C144.41 24.5056 143.139 19.6888 143.926 14.9924L144.652 10.296H143.502V10.0552L143.563 10.1756Z" fill="black"/>
<path d="M97.9944 75.5639C107.314 47.0846 122.08 40.1605 127.344 38.5348C124.742 32.574 118.993 28.1185 113.244 28.2991L113.486 27.8174H113.244L113.486 27.5766L113.728 26.6132L114.455 26.3724C122.322 25.8907 132.851 15.7152 134.485 4.27534L134.969 4.0345H135.454V4.27534H135.938C134.969 10.2361 136.664 16.1367 140.234 20.4116C142.594 23.2415 146.649 25.1682 149.796 25.409L150.038 26.6132H149.312C144.047 27.0949 137.874 31.8515 133.82 38.4746C139.084 40.4013 142.171 46.7836 143.139 57.1999C143.381 65.268 142.413 73.8178 141.929 77.6111C141.202 79.7184 140.96 82.1268 140.718 84.7158C138.6 96.818 136.422 110.124 131.641 121.263C126.618 134.329 120.93 140.952 110.884 141.674C105.135 142.156 99.2047 140.47 96.1184 136.918C87.0411 125.297 91.3376 96.0955 98.0549 75.4435L97.9944 75.5639Z" fill="white"/>
<path d="M135.454 4.15449V4.39533H135.938C134.97 10.3561 136.664 16.2567 140.234 20.5316C142.594 23.3615 146.649 25.2882 149.796 25.529L150.038 26.7332H149.312C144.047 27.2149 137.874 31.9715 133.82 38.5946C139.085 40.5213 142.171 46.9036 143.139 57.3199C143.381 65.388 142.413 73.9378 141.929 77.731C141.203 79.8384 140.961 82.2468 140.718 84.8358C138.6 96.938 136.422 110.244 131.641 121.383C126.618 134.449 120.93 141.072 110.884 141.794C110.219 141.794 109.613 141.855 108.948 141.855C103.864 141.855 98.8417 140.169 96.0579 137.038C86.9806 125.417 91.2773 96.2155 97.9945 75.5635C107.314 47.0842 122.08 40.16 127.345 38.5344C124.803 32.7542 119.296 28.2987 113.729 28.2987C113.608 28.2987 113.426 28.2987 113.305 28.2987L113.547 27.817H113.305L113.547 27.5762L113.789 26.6128L114.515 26.372C122.382 25.8903 132.912 15.7148 134.546 4.27491L135.03 4.03407H135.514M139.508 0.120427H134.001L133.154 0.541898L132.67 0.782738L130.794 1.7461L130.491 3.85345C128.978 14.0289 119.599 22.1573 114.213 22.4583H113.668L113.184 22.6389L112.458 22.8798L110.34 23.6023L109.855 25.5892L103.501 31.9113H106.951L106.588 32.694L113.426 32.393C113.426 32.393 113.607 32.393 113.668 32.393C116.331 32.393 119.235 34.0788 121.414 36.6679C118.449 38.1731 114.939 40.5213 111.308 44.1941C104.107 51.3591 98.2971 61.5346 94.1215 74.3593C88.433 91.8804 81.7763 125.357 92.8507 139.567H92.9112L92.9717 139.747C96.3606 143.661 102.291 145.949 108.887 145.949C109.614 145.949 110.4 145.949 111.126 145.828C125.045 144.865 131.157 133.726 135.333 122.889C139.932 112.051 142.231 99.226 144.228 87.9065L144.652 85.5583V85.3777V85.1971C144.894 82.6081 145.076 80.6211 145.681 78.9955L145.802 78.6342V78.2127C146.528 72.7938 147.315 64.7257 147.073 57.1995V57.079V56.9586C146.225 47.6261 143.684 41.0632 139.508 37.3904C142.594 33.6574 146.346 31.0683 149.433 30.7071H154.879L153.911 25.8903L153.669 24.6861L153.064 21.6756L149.977 21.4347C147.98 21.2541 144.955 19.9295 143.26 17.8824C140.355 14.4504 139.085 9.6336 139.871 4.93722L140.597 0.240847H139.448V7.62939e-06L139.508 0.120427Z" fill="black"/>
<path d="M97.9944 75.5639C107.314 47.0846 122.08 40.1605 127.344 38.5348C124.742 32.574 118.993 28.1185 113.244 28.2991L113.486 27.8174H113.244L113.486 27.5766L113.728 26.6132L114.455 26.3724C122.322 25.8907 132.851 15.7152 134.485 4.27534L134.969 4.0345H135.454V4.27534H135.938C134.969 10.2361 136.664 16.1367 140.234 20.4116C142.594 23.2415 146.649 25.1682 149.796 25.409L150.038 26.6132H149.312C144.047 27.0949 137.874 31.8515 133.82 38.4746C139.084 40.4013 142.171 46.7836 143.139 57.1999C143.381 65.268 142.413 73.8178 141.929 77.6111C141.202 79.7184 140.96 82.1268 140.718 84.7158C138.6 96.818 136.422 110.124 131.641 121.263C126.618 134.329 120.93 140.952 110.884 141.674C105.135 142.156 99.2047 140.47 96.1184 136.918C87.0411 125.297 91.3376 96.0955 98.0549 75.4435L97.9944 75.5639Z" fill="white"/>
<path d="M103.38 121.504C99.87 110.124 98.7808 91.8204 110.097 65.8097C110.097 65.8097 95.1498 84.8361 95.4524 109.944C95.6945 130.234 101.564 136.797 107.434 137.098C108.463 137.279 109.795 137.098 111.55 136.376C118.569 133.426 120.022 125.538 120.022 125.538C119.961 125.598 119.84 125.719 119.78 125.779C114.394 130.836 105.498 128.488 103.319 121.504H103.38Z" fill="#70D44B"/>
<path d="M134.061 14.0295C134.061 14.0295 134.787 24.1447 142.715 25.5296C142.715 25.5296 133.456 29.3228 134.061 14.0295Z" fill="#70D44B"/>
<path d="M122.866 125.539C123.653 125.539 124.318 124.876 124.318 124.094C124.318 123.311 123.653 122.649 122.866 122.649C122.079 122.649 121.414 123.311 121.414 124.094C121.414 124.876 122.079 125.539 122.866 125.539Z" fill="#70D44B"/>
<path d="M49.1582 137.339C57.8119 125.057 95.15 104.043 104.409 121.625C128.494 167.384 1.65341 169.13 8.37065 132.523C9.33889 127.947 17.0243 120.661 20.2922 111.81C36.0868 69.4828 45.7088 11.4404 81.1104 23.1211C111.55 33.0558 49.1582 137.279 49.1582 137.279V137.339Z" fill="black"/>
<path d="M72.2751 21.6758C75.0588 21.6758 77.9636 22.1575 81.1104 23.1811C111.55 33.1157 49.1582 137.339 49.1582 137.339C55.4518 128.428 76.8743 114.881 91.6401 114.881C97.2075 114.881 101.867 116.808 104.348 121.624C117.299 146.25 86.4963 158.172 56.3595 158.172C30.5193 158.172 5.16333 149.441 8.31014 132.583C9.27839 128.007 16.9639 120.721 20.2317 111.87C34.6344 73.2757 43.8933 21.6758 72.2146 21.6758M72.2751 17.6417C60.5956 17.6417 50.8526 24.9874 42.5015 40.0398C35.5422 52.5635 30.1563 69.3621 24.8914 85.5586C22.1682 93.9277 19.3845 102.538 16.4797 110.425C14.9063 114.64 12.1226 118.614 9.64149 122.106C7.16035 125.658 4.98177 128.729 4.37662 131.679V131.8C3.34785 137.339 4.80023 142.638 8.49168 147.093C17.8111 158.172 39.3546 162.146 56.42 162.146C76.0271 162.146 99.9913 157.148 108.524 143.179C111.429 138.423 113.668 130.475 108.04 119.758C105.922 115.724 101.323 110.847 91.7006 110.847C82.9259 110.847 72.2751 115.061 63.3188 120.42C67.1918 113.135 71.7305 104.344 76.0271 95.0717C91.0349 62.7992 96.4209 40.4613 92.0032 28.7204C90.2483 24.0842 86.9199 20.8329 82.3812 19.3276C78.9318 18.1836 75.543 17.5815 72.2751 17.5815V17.6417Z" fill="black"/>
<path d="M45.1038 127.284C53.7575 115.001 91.0957 93.9882 100.355 111.569C124.44 157.329 -2.40097 159.075 4.31626 122.468C5.28451 117.892 12.97 110.606 16.2378 101.755C32.0324 59.4277 41.6544 1.38529 77.056 13.066C107.495 23.0007 45.1038 127.224 45.1038 127.224V127.284Z" fill="white"/>
<path d="M68.2206 11.6207C71.0043 11.6207 73.9091 12.1023 77.0559 13.1259C107.495 23.0605 45.1037 127.284 45.1037 127.284C51.3973 118.373 72.8198 104.826 87.5856 104.826C93.153 104.826 97.8128 106.752 100.294 111.569C113.244 136.195 82.4418 148.117 52.305 148.117C26.4648 148.117 1.10882 139.386 4.25563 122.527C5.22388 117.951 12.9093 110.666 16.1772 101.815C30.5799 63.2206 39.8388 11.6207 68.1601 11.6207M68.2206 7.58659C56.5411 7.58659 46.7981 14.9322 38.4469 29.9847C31.4876 42.5084 26.1018 59.3069 20.8369 75.5034C18.1137 83.8726 15.33 92.4826 12.4252 100.37C10.8518 104.585 8.06808 108.559 5.58694 112.051C3.1058 115.603 0.927267 118.674 0.322111 121.624V121.745C-0.706654 127.284 0.745722 132.582 4.43717 137.038C13.7566 148.117 35.3001 152.09 52.3655 152.09C71.9726 152.09 95.9367 147.093 104.469 133.124C107.374 128.368 109.613 120.42 103.985 109.703C101.867 105.669 97.2681 100.792 87.6461 100.792C78.8714 100.792 68.2206 105.006 59.2643 110.365C63.1373 103.08 67.676 94.2889 71.9726 85.0166C86.9804 52.744 92.3663 30.4062 87.9487 18.6652C86.1937 14.029 82.8654 10.7777 78.3267 9.27246C74.8773 8.12847 71.4885 7.52637 68.2206 7.52637V7.58659Z" fill="black"/>
<path d="M45.1038 127.284C53.7575 115.001 91.0957 93.9882 100.355 111.569C124.44 157.329 -2.40097 159.075 4.31626 122.468C5.28451 117.892 12.97 110.606 16.2378 101.755C32.0324 59.4277 41.6544 1.38529 77.056 13.066C107.495 23.0007 45.1038 127.224 45.1038 127.224V127.284Z" fill="white"/>
<path d="M67.9786 19.8695C83.9547 22.0973 74.5748 56.4772 74.5748 56.4772C93.5767 10.9585 67.9786 19.8695 67.9786 19.8695Z" fill="#70D44B"/>
<path d="M20.2318 119.577C28.704 102.959 39.1126 57.38 39.1126 57.38C39.1126 57.38 19.9897 108.739 9.21797 122.347C-1.55381 135.954 38.6891 143.3 60.8378 142.216C60.8378 142.216 11.6991 136.255 20.2318 119.637V119.577Z" fill="#70D44B"/>
<path d="M40.3227 55.3933C41.0489 55.3933 41.5935 54.7912 41.5935 54.0687C41.5935 53.3462 40.9883 52.8043 40.2622 52.8043C39.536 52.8043 38.9913 53.4064 38.9913 54.1289C38.9913 54.8514 39.5965 55.3933 40.3227 55.3933Z" fill="#70D44B"/>
<path d="M189.918 25.0476C202.202 27.7571 216 40.5818 221.87 69.4223C230.645 51.4196 252.672 17.0999 272.521 24.0842C300.601 33.7781 287.106 160.761 254.185 157.269C228.284 154.379 242.506 83.2104 245.047 71.5899C242.687 82.0664 228.89 139.447 211.764 137.7C192.701 135.954 195.001 73.9381 195.424 70.6265C187.8 129.151 179.63 158.653 157.421 159.376C135.211 160.339 132.67 90.556 174.365 57.9825C158.994 51.4196 164.622 19.6287 189.978 25.0476H189.918Z" fill="black"/>
<path d="M267.075 23.1208C268.891 23.1208 270.706 23.4219 272.521 24.024C300.177 33.5974 287.469 157.269 255.517 157.269C255.093 157.269 254.609 157.269 254.185 157.208C228.285 154.318 242.506 83.1501 245.047 71.5296C242.748 81.8255 229.313 137.64 212.49 137.64C212.248 137.64 212.006 137.64 211.703 137.64C192.641 135.894 194.94 73.8778 195.364 70.5663C187.739 129.09 179.57 158.593 157.36 159.316C157.179 159.316 157.058 159.316 156.876 159.316C135.091 159.316 132.851 90.2549 174.305 57.9222C160.144 51.841 163.836 24.325 184.35 24.325C186.105 24.325 187.921 24.5057 189.918 24.9271C202.202 27.6366 216 40.4613 221.87 69.3019C229.858 52.9248 248.799 23.0004 267.075 23.0004M267.075 19.0868C248.497 19.0868 231.492 43.9535 223.201 58.2834C220.357 48.9509 216.424 41.1236 211.461 34.922C205.591 27.5764 198.45 22.8198 190.765 21.1339C188.526 20.6522 186.408 20.4114 184.29 20.4114C173.155 20.4114 164.501 27.5162 162.202 38.4744C160.568 46.2414 162.746 53.7075 167.587 58.3437C152.035 72.3124 144.591 89.8335 141.082 102.538C136.482 119.276 136.24 136.436 140.416 148.538C143.744 158.112 149.554 163.41 156.876 163.41C157.058 163.41 157.3 163.41 157.481 163.41C170.069 162.989 178.964 154.92 185.561 138.122C188.284 131.198 190.704 122.527 192.943 111.328C194.456 121.323 197.119 130.656 201.597 136.135C204.32 139.507 207.588 141.373 211.28 141.674C211.643 141.674 212.006 141.674 212.43 141.674C220.357 141.674 227.74 133.727 234.82 117.47C234.276 134.63 236.575 146.912 241.598 153.897C244.684 158.172 248.739 160.58 253.641 161.122C254.246 161.182 254.851 161.242 255.396 161.242C263.747 161.242 271.069 155.221 277.242 143.36C282.204 133.787 286.198 120.661 288.74 105.488C291.826 87.2444 292.492 68.0375 290.555 52.8043C288.256 34.5005 282.446 23.2412 273.671 20.2307C271.493 19.448 269.254 19.0868 266.954 19.0868H267.075Z" fill="black"/>
<path d="M185.863 14.932C198.148 17.6414 211.946 30.4662 217.816 59.3067C226.59 41.3039 248.618 6.98427 268.467 13.9686C296.546 23.6624 283.051 150.645 250.131 147.153C224.23 144.263 238.451 73.0948 240.993 61.4743C238.633 71.9508 224.835 129.331 207.709 127.585C188.647 125.839 190.947 63.8225 191.37 60.5109C183.745 119.035 175.576 148.538 153.366 149.26C131.157 150.224 128.615 80.4404 170.311 47.8668C154.94 41.3039 160.568 9.51309 185.924 14.932H185.863Z" fill="white"/>
<path d="M263.021 13.0655C264.836 13.0655 266.652 13.3665 268.467 13.9686C296.123 23.542 283.414 147.213 251.462 147.213C251.038 147.213 250.554 147.213 250.131 147.153C224.23 144.263 238.451 73.0948 240.993 61.4743C238.693 71.7702 225.259 127.585 208.436 127.585C208.193 127.585 207.951 127.585 207.649 127.585C188.586 125.839 190.886 63.8225 191.31 60.5109C183.685 119.035 175.515 148.538 153.306 149.26C153.124 149.26 153.003 149.26 152.822 149.26C131.036 149.26 128.797 80.1996 170.25 47.8668C156.09 41.7856 159.781 14.2697 180.296 14.2697C182.051 14.2697 183.866 14.4503 185.863 14.8718C198.148 17.5812 211.945 30.406 217.815 59.2465C225.804 42.8694 244.745 12.9451 263.021 12.9451M263.021 9.03143C244.442 9.03143 227.437 33.8981 219.147 48.2281C216.303 38.8956 212.369 31.0683 207.407 24.8666C201.537 17.521 194.396 12.7644 186.71 11.0786C184.471 10.5969 182.353 10.356 180.235 10.356C169.1 10.356 160.447 17.4608 158.147 28.419C156.513 36.1861 158.692 43.6521 163.533 48.2883C147.98 62.257 140.537 79.7781 137.027 92.4824C132.428 109.221 132.186 126.381 136.361 138.483C139.69 148.056 145.499 153.355 152.822 153.355C153.003 153.355 153.245 153.355 153.427 153.355C166.014 152.933 174.91 144.865 181.506 128.067C184.229 121.142 186.65 112.472 188.889 101.273C190.402 111.268 193.065 120.6 197.543 126.08C200.266 129.451 203.534 131.318 207.225 131.619C207.588 131.619 207.951 131.619 208.375 131.619C216.303 131.619 223.685 123.671 230.766 107.414C230.221 124.574 232.521 136.857 237.544 143.842C240.63 148.116 244.684 150.525 249.586 151.067C250.191 151.127 250.796 151.187 251.341 151.187C259.692 151.187 267.015 145.166 273.187 133.305C278.149 123.731 282.144 110.606 284.685 95.4327C287.772 77.1891 288.437 57.9821 286.501 42.749C284.201 24.4452 278.392 13.1859 269.617 10.1754C267.438 9.39269 265.199 9.03143 262.9 9.03143H263.021Z" fill="black"/>
<path d="M185.863 14.932C198.148 17.6414 211.946 30.4662 217.816 59.3067C226.59 41.3039 248.618 6.98427 268.467 13.9686C296.546 23.6624 283.051 150.645 250.131 147.153C224.23 144.263 238.451 73.0948 240.993 61.4743C238.633 71.9508 224.835 129.331 207.709 127.585C188.647 125.839 190.947 63.8225 191.37 60.5109C183.745 119.035 175.576 148.538 153.366 149.26C131.157 150.224 128.615 80.4404 170.311 47.8668C154.94 41.3039 160.568 9.51309 185.924 14.932H185.863Z" fill="white"/>
<path d="M194.759 57.4405C194.759 57.4405 192.762 117.109 211.462 119.938C211.462 119.938 214.366 121.022 217.574 114.64C217.574 114.64 208.496 118.915 194.82 57.4405H194.759Z" fill="#70D44B"/>
<path d="M257.09 20.4717C270.222 16.257 278.876 49.8541 278.876 49.8541C274.882 9.39303 257.09 20.4717 257.09 20.4717Z" fill="#70D44B"/>
<path d="M200.932 30.2254C200.932 30.2254 195.727 20.8327 184.774 19.0866C173.881 17.3405 168.435 28.5395 168.435 28.5395C182.898 10.4163 200.932 30.2254 200.932 30.2254Z" fill="#70D44B"/>
<path d="M149.856 126.922C146.104 114.76 144.954 95.2517 157.058 67.4348C157.058 67.4348 141.142 87.7255 141.445 114.519C141.687 136.134 147.98 143.179 154.213 143.54C155.303 143.721 156.695 143.54 158.631 142.757C166.135 139.626 167.648 131.197 167.648 131.197C167.587 131.257 167.466 131.378 167.406 131.438C161.657 136.797 152.216 134.328 149.856 126.862V126.922Z" fill="#70D44B"/>
<path d="M248.497 126.983C244.503 114.098 240.872 92.9043 243.958 61.8359C243.958 61.8359 237.907 87.7262 238.27 114.52C238.633 141.313 248.074 145.648 255.456 142.758C260.903 140.289 263.021 133.787 263.021 133.787C253.459 139.748 249.042 128.368 248.558 126.983H248.497Z" fill="#70D44B"/>
<path d="M159.236 65.9901C160.023 65.9901 160.628 65.388 160.628 64.6053C160.628 63.8225 160.023 63.2204 159.236 63.2204C158.45 63.2204 157.844 63.8225 157.844 64.6053C157.844 65.388 158.45 65.9901 159.236 65.9901Z" fill="#70D44B"/>
<path d="M324.747 29.4427C330.98 30.0448 338.605 36.7883 345.14 35.6443C380.905 28.5997 390.043 45.0371 384.718 61.2335C378.243 83.8725 348.65 71.8305 336.245 57.1393C339.815 63.8828 335.639 77.43 329.467 83.0295C337.758 75.6839 351.616 71.2886 359.301 78.6342C366.381 85.9798 361.661 112.412 347.198 112.713C338.06 112.713 328.317 102.417 328.317 102.417C333.642 115.061 326.562 123.551 326.562 123.551C348.711 108.86 379.453 122.648 374.127 144.685C367.894 168.467 334.55 153.475 319.179 152.632C311.494 151.729 308.528 159.376 296.728 157.931C262.779 152.632 283.414 26.2515 324.807 29.5029L324.747 29.4427Z" fill="black"/>
<path d="M323.173 29.383C323.718 29.383 324.202 29.383 324.746 29.4432C330.435 29.9851 337.394 35.7652 343.567 35.7652C344.111 35.7652 344.596 35.7652 345.14 35.6448C351.01 34.5008 356.094 33.9589 360.572 33.9589C383.447 33.9589 389.135 47.6868 384.717 61.234C382.115 70.2655 375.822 73.8179 368.439 73.8179C357.364 73.8179 343.748 65.9304 336.305 57.1398C339.875 63.8833 335.7 77.4305 329.527 83.03C334.792 78.3337 342.357 74.8415 349.134 74.8415C352.947 74.8415 356.578 75.9855 359.361 78.6347C366.442 85.9803 361.722 112.412 347.258 112.714C338.12 112.714 328.377 102.418 328.377 102.418C333.703 115.062 326.622 123.551 326.622 123.551C332.977 119.337 340.057 117.47 346.774 117.47C363.476 117.47 378 129.03 374.188 144.745C371.465 155.162 363.598 158.172 354.278 158.172C342.296 158.172 327.893 153.235 319.24 152.693C318.816 152.693 318.392 152.633 318.029 152.633C311.857 152.633 308.589 158.172 299.754 158.172C298.846 158.172 297.878 158.172 296.849 157.991C263.323 152.753 283.051 29.5034 323.355 29.5034M323.173 25.3489C310.586 25.3489 299.209 35.0427 290.132 53.467C282.688 68.6399 277.544 88.5092 275.971 107.897C274.882 121.625 275.789 133.727 278.513 142.879C282.688 156.968 290.313 161.002 296.002 161.845H296.062H296.123C297.272 161.965 298.422 162.086 299.572 162.086C305.381 162.086 309.254 160.099 312.341 158.473C314.519 157.329 316.032 156.546 317.848 156.546C318.09 156.546 318.332 156.546 318.634 156.546H318.755H318.876C322.205 156.727 326.744 157.69 331.585 158.774C338.665 160.279 346.714 162.025 354.096 162.025C367.107 162.025 375.095 156.486 377.94 145.588V145.528C379.695 138.182 378.121 130.957 373.522 125.117C369.225 119.698 362.629 115.844 355.065 114.219C358.635 111.991 361.661 108.258 363.719 103.261C367.107 95.1322 367.713 83.7526 363.416 77.3101C365.05 77.5509 366.684 77.6714 368.257 77.6714C378.363 77.6714 385.565 72.1923 388.409 62.2576C391.193 53.8282 390.285 45.9407 385.988 39.9799C382.599 35.3438 375.398 29.7442 360.39 29.7442C355.549 29.7442 350.042 30.3463 344.172 31.4903C343.93 31.4903 343.627 31.5505 343.325 31.5505C340.965 31.5505 337.818 30.1055 334.792 28.6605C331.585 27.1552 328.256 25.5898 324.928 25.2887C324.323 25.2887 323.657 25.2285 323.052 25.2285L323.173 25.3489ZM340.238 72.2525C340.723 70.6268 341.086 69.0011 341.328 67.3153C342.962 68.5797 344.717 69.7839 346.593 70.8676C344.535 71.1085 342.417 71.5299 340.238 72.2525ZM334.066 115.423C334.187 114.46 334.308 113.436 334.308 112.412C335.518 113.195 336.729 113.858 337.878 114.399C336.547 114.7 335.276 115.062 334.005 115.483L334.066 115.423Z" fill="black"/>
<path d="M320.692 19.3875C326.925 19.9896 334.55 26.7331 341.086 25.5891C376.851 18.5445 385.989 34.9819 380.663 51.1783C374.188 73.8173 344.596 61.7753 332.19 47.0841C335.761 53.8276 331.585 67.3748 325.413 72.9743C333.703 65.6287 347.561 61.2334 355.247 68.579C362.327 75.9246 357.607 102.357 343.144 102.658C334.006 102.658 324.263 92.3619 324.263 92.3619C329.588 105.006 322.508 113.496 322.508 113.496C344.657 98.8044 375.398 112.592 370.073 134.629C363.84 158.412 330.496 143.42 315.125 142.577C307.439 141.674 304.474 149.321 292.674 147.876C258.724 142.577 279.36 16.1963 320.753 19.4477L320.692 19.3875Z" fill="white"/>
<path d="M319.119 19.3273C319.664 19.3273 320.148 19.3273 320.692 19.3875C326.381 19.9294 333.34 25.7095 339.513 25.7095C340.057 25.7095 340.541 25.7095 341.086 25.5891C346.956 24.4451 352.039 23.9032 356.518 23.9032C379.392 23.9032 385.081 37.6311 380.663 51.1783C378.061 60.2098 371.768 63.7622 364.385 63.7622C353.31 63.7622 339.694 55.8747 332.251 47.0841C335.821 53.8276 331.646 67.3748 325.473 72.9743C330.738 68.278 338.302 64.7858 345.08 64.7858C348.893 64.7858 352.524 65.9298 355.307 68.579C362.388 75.9246 357.667 102.357 343.204 102.658C334.066 102.658 324.323 92.3619 324.323 92.3619C329.649 105.006 322.568 113.496 322.568 113.496C328.922 109.281 336.003 107.414 342.72 107.414C359.422 107.414 373.946 118.975 370.134 134.69C367.41 145.106 359.543 148.116 350.224 148.116C338.242 148.116 323.839 143.179 315.185 142.637C314.762 142.637 314.338 142.577 313.975 142.577C307.803 142.577 304.535 148.116 295.699 148.116C294.792 148.116 293.823 148.116 292.795 147.936C259.269 142.697 278.997 19.4477 319.3 19.4477M319.119 15.2932C306.532 15.2932 295.155 24.987 286.077 43.4113C278.634 58.5842 273.49 78.4534 271.917 97.841C270.827 111.569 271.735 123.671 274.458 132.823C278.634 146.912 286.259 150.946 291.947 151.789H292.008H292.068C293.218 151.91 294.368 152.03 295.518 152.03C301.327 152.03 305.2 150.043 308.287 148.417C310.465 147.273 311.978 146.491 313.794 146.491C314.036 146.491 314.278 146.491 314.58 146.491H314.701H314.822C318.151 146.671 322.689 147.635 327.531 148.718C334.611 150.224 342.659 151.97 350.042 151.97C363.053 151.97 371.041 146.43 373.886 135.532V135.472C375.64 128.127 374.067 120.901 369.468 115.061C365.171 109.642 358.575 105.789 351.011 104.163C354.581 101.935 357.607 98.2023 359.664 93.2049C363.053 85.0765 363.658 73.6969 359.362 67.2544C360.996 67.4952 362.63 67.6157 364.203 67.6157C374.309 67.6157 381.51 62.1366 384.355 52.2019C387.138 43.7725 386.231 35.885 381.934 29.9242C378.545 25.2881 371.344 19.6885 356.336 19.6885C351.495 19.6885 345.988 20.2906 340.118 21.4346C339.876 21.4346 339.573 21.4948 339.271 21.4948C336.91 21.4948 333.764 20.0498 330.738 18.6048C327.531 17.0995 324.202 15.5341 320.874 15.233C320.269 15.233 319.603 15.1728 318.998 15.1728L319.119 15.2932ZM336.184 62.1366C336.668 60.5109 337.031 58.8852 337.274 57.1993C338.907 58.4637 340.662 59.6679 342.538 60.7517C340.481 60.9926 338.363 61.414 336.184 62.1366ZM330.012 105.307C330.133 104.344 330.254 103.32 330.254 102.297C331.464 103.079 332.674 103.742 333.824 104.284C332.493 104.585 331.222 104.946 329.951 105.367L330.012 105.307Z" fill="black"/>
<path d="M320.692 19.3875C326.925 19.9896 334.55 26.7331 341.086 25.5891C376.851 18.5445 385.989 34.9819 380.663 51.1783C374.188 73.8173 344.596 61.7753 332.19 47.0841C335.761 53.8276 331.585 67.3748 325.413 72.9743C333.703 65.6287 347.561 61.2334 355.247 68.579C362.327 75.9246 357.607 102.357 343.144 102.658C334.006 102.658 324.263 92.3619 324.263 92.3619C329.588 105.006 322.508 113.496 322.508 113.496C344.657 98.8044 375.398 112.592 370.073 134.629C363.84 158.412 330.496 143.42 315.125 142.577C307.439 141.674 304.474 149.321 292.674 147.876C258.724 142.577 279.36 16.1963 320.753 19.4477L320.692 19.3875Z" fill="white"/>
<path d="M285.169 69.6023C285.169 69.6023 270.766 133.425 294.852 140.59C294.852 140.59 298.059 142.276 304.111 136.255C304.111 136.255 282.325 135.111 285.169 69.6023Z" fill="#70D44B"/>
<path d="M353.915 57.5002C353.915 57.5002 379.877 65.8092 377.88 40.3404C377.88 40.3404 374.491 59.7882 353.915 57.5002Z" fill="#70D44B"/>
<path d="M286.622 67.1336C287.409 67.1336 288.074 66.4713 288.074 65.6886C288.074 64.9058 287.409 64.2435 286.622 64.2435C285.835 64.2435 285.17 64.9058 285.17 65.6886C285.17 66.4713 285.835 67.1336 286.622 67.1336Z" fill="#70D44B"/>
</svg>
