<svg width="648" height="147" viewBox="0 0 648 147" fill="none" xmlns="http://www.w3.org/2000/svg">
<g clip-path="url(#clip0_6_2698)">
<path d="M74.3135 17.6207H578.109C616.635 17.6207 647.944 48.7374 647.944 87.1031C647.944 119.69 621.344 146.191 588.557 146.191H74.3135C38.6742 146.191 9.70227 117.399 9.70227 81.9056C9.70227 46.4122 38.6399 17.6207 74.3135 17.6207Z" fill="black"/>
<path d="M66.2027 1.54968H569.999C608.525 1.54968 639.834 32.6663 639.834 71.0321C639.834 103.619 613.233 130.12 580.446 130.12H66.2027C30.5634 130.085 1.62579 101.294 1.62579 65.8004C1.62579 30.3411 30.5634 1.54968 66.2027 1.54968Z" fill="white"/>
<mask id="path-3-inside-1_6_2698" fill="white">
<path d="M580.446 131.487H66.2027C29.8073 131.487 0.182373 102.046 0.182373 65.8004C0.182373 29.5546 29.8073 0.113525 66.2027 0.113525H569.999C609.281 0.113525 641.243 31.914 641.243 70.9979C641.243 104.371 613.955 131.487 580.446 131.487ZM66.2027 2.95164C31.3882 2.95164 3.03489 31.1618 3.03489 65.8004C3.03489 100.439 31.3539 128.649 66.2027 128.649H580.446C612.408 128.649 638.39 102.798 638.39 70.9979C638.39 33.487 607.7 2.95164 569.999 2.95164H66.2027Z"/>
</mask>
<path d="M580.446 131.487H66.2027C29.8073 131.487 0.182373 102.046 0.182373 65.8004C0.182373 29.5546 29.8073 0.113525 66.2027 0.113525H569.999C609.281 0.113525 641.243 31.914 641.243 70.9979C641.243 104.371 613.955 131.487 580.446 131.487ZM66.2027 2.95164C31.3882 2.95164 3.03489 31.1618 3.03489 65.8004C3.03489 100.439 31.3539 128.649 66.2027 128.649H580.446C612.408 128.649 638.39 102.798 638.39 70.9979C638.39 33.487 607.7 2.95164 569.999 2.95164H66.2027Z" fill="black"/>
<path d="M580.446 63.8748H66.2027V199.1H580.446V63.8748ZM66.2027 63.8748C66.2915 63.8748 66.5294 63.9052 66.784 64.0125C66.994 64.101 67.1299 64.204 67.2237 64.2973C67.3178 64.3909 67.4589 64.5641 67.5866 64.8641C67.7344 65.2111 67.7949 65.5723 67.7949 65.8004H-67.4301C-67.4301 139.733 -7.18788 199.1 66.2027 199.1V63.8748ZM67.7949 65.8004C67.7949 66.0285 67.7344 66.3897 67.5866 66.7367C67.4589 67.0367 67.3178 67.2099 67.2237 67.3035C67.1299 67.3968 66.994 67.4998 66.784 67.5883C66.5294 67.6956 66.2915 67.726 66.2027 67.726V-67.499C-7.18788 -67.499 -67.4301 -8.13193 -67.4301 65.8004H67.7949ZM66.2027 67.726H569.999V-67.499H66.2027V67.726ZM569.999 67.726C571.04 67.726 571.907 68.0771 572.664 68.8294C573.046 69.2099 573.29 69.6007 573.428 69.925C573.546 70.2023 573.63 70.5209 573.63 70.9979H708.855C708.855 -5.74967 646.299 -67.499 569.999 -67.499V67.726ZM573.63 70.9979C573.63 66.6828 576.962 63.8748 580.446 63.8748V199.1C650.948 199.1 708.855 142.06 708.855 70.9979H573.63ZM66.2027 -64.6609C-5.62994 -64.6609 -64.5776 -6.50195 -64.5776 65.8004H70.6474C70.6474 67.322 69.95 68.6216 69.2514 69.3167C68.5583 70.0063 67.411 70.5641 66.2027 70.5641V-64.6609ZM-64.5776 65.8004C-64.5776 138.079 -5.68831 196.262 66.2027 196.262V61.0367C67.3819 61.0367 68.5373 61.5861 69.2475 62.2931C69.9598 63.002 70.6474 64.3031 70.6474 65.8004H-64.5776ZM66.2027 196.262H580.446V61.0367H66.2027V196.262ZM580.446 196.262C649.426 196.262 706.003 140.462 706.003 70.9979H570.778C570.778 65.1347 575.39 61.0367 580.446 61.0367V196.262ZM706.003 70.9979C706.003 -4.17673 644.718 -64.6609 569.999 -64.6609V70.5641C570.137 70.5641 570.208 70.5771 570.233 70.5822C570.263 70.5882 570.289 70.5962 570.32 70.6093C570.393 70.6402 570.518 70.7121 570.644 70.8383C570.771 70.9644 570.808 71.0516 570.801 71.0372C570.796 71.0249 570.787 70.9979 570.78 70.9647C570.772 70.9274 570.778 70.9307 570.778 70.9979H706.003ZM569.999 -64.6609H66.2027V70.5641H569.999V-64.6609Z" fill="black" mask="url(#path-3-inside-1_6_2698)"/>
<path d="M59.1917 77.3578H50.0156L44.5167 91.3432H31.1477L36.5778 77.3578H27.2985L31.2852 67.3389H40.5301L44.07 58.2775H34.7907L38.7773 48.2586H48.0222L52.4213 36.9062H65.9622L61.4944 48.2586H70.6705L75.1727 36.9062H88.7823L84.2801 48.2586H93.4563L89.4697 58.2775H80.2248L76.6161 67.3389H85.9642L81.9775 77.3578H72.6295L67.0276 91.3432H53.6585L59.1574 77.3578H59.1917ZM66.7183 58.2433H57.5421L54.0022 67.3047H63.1784L66.7183 58.2433Z" fill="black"/>
<path d="M119.61 53.1483H97.7178L100.88 36.9061H166.453L163.291 53.1483H141.468L134.044 91.3431H112.152L119.644 53.1483H119.61Z" fill="black"/>
<path d="M231.511 36.9061L228.796 50.5838H194.91L193.741 56.7387H226.597L223.813 70.7241H191.026L189.686 77.5287H224.088L221.373 91.3431H164.907L175.561 36.9403H231.511V36.9061Z" fill="black"/>
<path d="M280.313 83.034H253.403L248.179 91.3089H225.256L260.827 36.9061H289.214L304.714 91.3089H282.444L280.313 83.034ZM272.443 52.9774L261.927 69.5957H276.773L272.443 52.9774Z" fill="black"/>
<path d="M319.767 36.9061H348.945L356.816 64.7743L375.134 36.9061H405.858L395.273 91.3089H373.656L380.117 58.2432L358.053 91.3089H345.474L336.436 58.2432L329.974 91.3089H309.079L319.733 36.9061H319.767Z" fill="black"/>
<path d="M444.866 65.6298C450.158 49.456 458.544 45.5237 461.534 44.6004C460.056 41.2152 456.791 38.6848 453.526 38.7874L453.664 38.5139H453.526L453.664 38.3771L453.801 37.83L454.214 37.6932C458.681 37.4197 464.661 31.6409 465.589 25.144L465.864 25.0072H466.139V25.144H466.414C465.864 28.5292 466.827 31.8802 468.854 34.308C470.195 35.9151 472.497 37.0093 474.284 37.1461L474.422 37.83H474.009C471.019 38.1035 467.514 40.8049 465.211 44.5662C468.201 45.6604 469.954 49.285 470.504 55.2006C470.641 59.7826 470.091 64.6382 469.817 66.7924C469.404 67.9892 469.267 69.3569 469.129 70.8273C467.926 77.7003 466.689 85.2572 463.974 91.5831C461.122 99.0032 457.891 102.765 452.186 103.175C448.921 103.448 445.553 102.491 443.8 100.474C438.645 93.8741 441.085 77.29 444.9 65.5614L444.866 65.6298Z" fill="black"/>
<path d="M466.139 25.0411V25.1779H466.414C465.864 28.5631 466.827 31.9141 468.854 34.3419C470.195 35.949 472.497 37.0432 474.284 37.18L474.422 37.8639H474.009C471.019 38.1374 467.514 40.8388 465.211 44.6001C468.201 45.6943 469.954 49.3189 470.504 55.2345C470.641 59.8165 470.091 64.6721 469.817 66.8263C469.404 68.0231 469.267 69.3908 469.129 70.8612C467.926 77.7342 466.689 85.2911 463.974 91.617C461.122 99.0371 457.891 102.798 452.186 103.209C451.808 103.209 451.464 103.243 451.086 103.243C448.199 103.243 445.347 102.286 443.766 100.507C438.611 93.908 441.051 77.3239 444.866 65.5953C450.158 49.4215 458.544 45.4892 461.534 44.5659C460.09 41.2833 456.963 38.7529 453.801 38.7529C453.732 38.7529 453.629 38.7529 453.561 38.7529L453.698 38.4794H453.561L453.698 38.3426L453.836 37.7955L454.248 37.6587C458.716 37.3852 464.696 31.6064 465.624 25.1095L465.899 24.9727H466.174M468.442 22.7501H465.314L464.833 22.9894L464.558 23.1262L463.493 23.6733L463.321 24.8701C462.462 30.6489 457.135 35.2651 454.076 35.4361H453.767L453.492 35.5387L453.079 35.6755L451.877 36.0858L451.602 37.2142L447.993 40.8046H449.952L449.746 41.2491L453.629 41.0781C453.629 41.0781 453.732 41.0781 453.767 41.0781C455.279 41.0781 456.929 42.0356 458.166 43.5059C456.482 44.3608 454.489 45.6943 452.426 47.7802C448.337 51.8493 445.037 57.6281 442.666 64.9114C439.435 74.8619 435.655 93.8738 441.944 101.944H441.979L442.013 102.046C443.938 104.269 447.306 105.568 451.052 105.568C451.464 105.568 451.911 105.568 452.323 105.5C460.228 104.953 463.699 98.6268 466.07 92.4719C468.682 86.3169 469.988 79.0336 471.123 72.6051L471.363 71.2715V71.1689V71.0663C471.501 69.596 471.604 68.4676 471.947 67.5444L472.016 67.3392V67.0998C472.428 64.0224 472.875 59.4404 472.738 55.1661V55.0977V55.0293C472.257 49.7292 470.813 46.0021 468.442 43.9162C470.195 41.7962 472.325 40.3259 474.078 40.1207H477.171L476.621 37.3852L476.484 36.7013L476.14 34.9916L474.387 34.8548C473.253 34.7522 471.535 33.9999 470.573 32.8373C468.923 30.8883 468.201 28.1528 468.648 25.4856L469.06 22.8185H468.407V22.6817L468.442 22.7501Z" fill="black"/>
<path d="M442.563 59.8851C447.856 43.7113 456.241 39.779 459.231 38.8557C457.754 35.4705 454.489 32.9402 451.224 33.0427L451.361 32.7692H451.224L451.361 32.6324L451.499 32.0853L451.911 31.9485C456.379 31.675 462.359 25.8962 463.287 19.3993L463.562 19.2625H463.837V19.3993H464.112C463.562 22.7845 464.524 26.1355 466.552 28.5633C467.892 30.1704 470.195 31.2646 471.982 31.4014L472.119 32.0853H471.707C468.717 32.3589 465.211 35.0602 462.909 38.8215C465.899 39.9157 467.651 43.5403 468.201 49.4559C468.339 54.0379 467.789 58.8935 467.514 61.0477C467.102 62.2445 466.964 63.6123 466.827 65.0826C465.624 71.9556 464.386 79.5125 461.671 85.8384C458.819 93.2585 455.588 97.0199 449.883 97.4302C446.618 97.7038 443.25 96.7463 441.498 94.7289C436.342 88.1294 438.783 71.5453 442.597 59.8167L442.563 59.8851Z" fill="white"/>
<path d="M463.837 19.3306V19.4674H464.112C463.562 22.8526 464.524 26.2037 466.552 28.6314C467.892 30.2386 470.195 31.3328 471.982 31.4696L472.119 32.1534H471.707C468.717 32.427 465.211 35.1283 462.909 38.8897C465.899 39.9839 467.651 43.6085 468.201 49.524C468.339 54.106 467.789 58.9616 467.514 61.1158C467.102 62.3126 466.964 63.6804 466.827 65.1507C465.624 72.0238 464.387 79.5806 461.672 85.9066C458.819 93.3267 455.588 97.088 449.883 97.4984C449.505 97.4984 449.162 97.5325 448.784 97.5325C445.897 97.5325 443.044 96.5751 441.463 94.797C436.308 88.1976 438.748 71.6134 442.563 59.8848C447.856 43.711 456.241 39.7787 459.231 38.8555C457.788 35.5728 454.661 33.0425 451.499 33.0425C451.43 33.0425 451.327 33.0425 451.258 33.0425L451.396 32.7689H451.258L451.396 32.6322L451.533 32.085L451.945 31.9483C456.413 31.6747 462.393 25.8959 463.321 19.399L463.596 19.2623H463.871M466.139 17.0396H463.012L462.531 17.279L462.256 17.4158L461.19 17.9629L461.019 19.1597C460.159 24.9385 454.832 29.5547 451.774 29.7257H451.464L451.189 29.8282L450.777 29.965L449.574 30.3753L449.299 31.5037L445.691 35.0941H447.649L447.443 35.5386L451.327 35.3677C451.327 35.3677 451.43 35.3677 451.464 35.3677C452.976 35.3677 454.626 36.3251 455.863 37.7955C454.179 38.6503 452.186 39.9839 450.124 42.0697C446.034 46.1388 442.735 51.9176 440.364 59.201C437.133 69.1514 433.353 88.1634 439.642 96.2332H439.676L439.711 96.3357C441.635 98.5584 445.003 99.8577 448.749 99.8577C449.162 99.8577 449.608 99.8577 450.021 99.7894C457.925 99.2422 461.397 92.9163 463.768 86.7614C466.38 80.6065 467.686 73.3231 468.82 66.8946L469.061 65.5611V65.4585V65.3559C469.198 63.8856 469.301 62.7571 469.645 61.8339L469.714 61.6287V61.3894C470.126 58.3119 470.573 53.7299 470.435 49.4556V49.3873V49.3189C469.954 44.0188 468.511 40.2916 466.139 38.2058C467.892 36.0858 470.023 34.6154 471.776 34.4102H474.869L474.319 31.6747L474.181 30.9908L473.838 29.2811L472.085 29.1444C470.951 29.0418 469.232 28.2895 468.27 27.1269C466.62 25.1778 465.899 22.4423 466.346 19.7752L466.758 17.108H466.105V16.9713L466.139 17.0396Z" fill="black"/>
<path d="M442.563 59.8851C447.856 43.7113 456.241 39.779 459.231 38.8557C457.754 35.4705 454.489 32.9402 451.224 33.0427L451.361 32.7692H451.224L451.361 32.6324L451.499 32.0853L451.911 31.9485C456.379 31.675 462.359 25.8962 463.287 19.3993L463.562 19.2625H463.837V19.3993H464.112C463.562 22.7845 464.524 26.1355 466.552 28.5633C467.892 30.1704 470.195 31.2646 471.982 31.4014L472.119 32.0853H471.707C468.717 32.3589 465.211 35.0602 462.909 38.8215C465.899 39.9157 467.651 43.5403 468.201 49.4559C468.339 54.0379 467.789 58.8935 467.514 61.0477C467.102 62.2445 466.964 63.6123 466.827 65.0826C465.624 71.9556 464.386 79.5125 461.671 85.8384C458.819 93.2585 455.588 97.0199 449.883 97.4302C446.618 97.7038 443.25 96.7463 441.498 94.7289C436.342 88.1294 438.783 71.5453 442.597 59.8167L442.563 59.8851Z" fill="white"/>
<path d="M445.622 85.9751C443.628 79.5124 443.01 69.1174 449.436 54.3455C449.436 54.3455 440.948 65.1509 441.119 79.4098C441.257 90.9332 444.591 94.6604 447.924 94.8313C448.508 94.9339 449.265 94.8313 450.261 94.421C454.248 92.7455 455.073 88.2661 455.073 88.2661C455.038 88.3003 454.97 88.3686 454.935 88.4028C451.876 91.2751 446.824 89.9416 445.587 85.9751H445.622Z" fill="#70D44B"/>
<path d="M463.046 24.9388C463.046 24.9388 463.458 30.6834 467.961 31.4699C467.961 31.4699 462.702 33.6241 463.046 24.9388Z" fill="#70D44B"/>
<path d="M456.688 88.2665C457.135 88.2665 457.513 87.8904 457.513 87.4458C457.513 87.0013 457.135 86.6252 456.688 86.6252C456.241 86.6252 455.863 87.0013 455.863 87.4458C455.863 87.8904 456.241 88.2665 456.688 88.2665Z" fill="#70D44B"/>
<path d="M414.828 94.9683C419.743 87.9927 440.948 76.0589 446.206 86.0436C459.884 112.031 387.85 113.023 391.664 92.2328C392.214 89.634 396.579 85.4965 398.435 80.47C407.405 56.4315 412.869 23.4684 432.974 30.1021C450.261 35.7441 414.828 94.9341 414.828 94.9341V94.9683Z" fill="black"/>
<path d="M427.957 29.2813C429.538 29.2813 431.187 29.5548 432.974 30.1361C450.261 35.7781 414.828 94.9681 414.828 94.9681C418.402 89.9074 430.569 82.2137 438.954 82.2137C442.116 82.2137 444.762 83.3079 446.172 86.0435C453.526 100.029 436.033 106.799 418.918 106.799C404.243 106.799 389.843 101.841 391.63 92.2668C392.18 89.668 396.545 85.5305 398.4 80.504C406.58 58.5856 411.838 29.2813 427.922 29.2813M427.957 26.9902C421.324 26.9902 415.791 31.1619 411.048 39.7105C407.095 46.8228 404.037 56.363 401.047 65.5612C399.5 70.3142 397.919 75.2039 396.27 79.6834C395.376 82.0769 393.795 84.3338 392.386 86.317C390.977 88.3345 389.74 90.0784 389.396 91.7539V91.8223C388.812 94.9681 389.637 97.9772 391.733 100.508C397.026 106.799 409.261 109.056 418.952 109.056C430.087 109.056 443.697 106.218 448.543 98.2849C450.193 95.5836 451.464 91.07 448.268 84.9834C447.065 82.6924 444.453 79.9227 438.989 79.9227C434.005 79.9227 427.957 82.3163 422.87 85.3596C425.07 81.2221 427.647 76.2297 430.087 70.9639C438.611 52.6358 441.669 39.9498 439.161 33.282C438.164 30.649 436.274 28.8025 433.696 27.9477C431.737 27.298 429.813 26.9561 427.957 26.9561V26.9902Z" fill="black"/>
<path d="M412.526 89.2578C417.44 82.2822 438.645 70.3485 443.903 80.3332C457.582 106.321 385.547 107.312 389.362 86.5223C389.912 83.9236 394.276 79.7861 396.132 74.7595C405.102 50.7211 410.567 17.758 430.672 24.3916C447.959 30.0337 412.526 89.2236 412.526 89.2236V89.2578Z" fill="white"/>
<path d="M425.654 23.5708C427.235 23.5708 428.885 23.8444 430.672 24.4257C447.959 30.0677 412.526 89.2577 412.526 89.2577C416.1 84.1969 428.266 76.5033 436.652 76.5033C439.814 76.5033 442.46 77.5975 443.869 80.333C451.224 94.3184 433.73 101.089 416.615 101.089C401.94 101.089 387.54 96.1307 389.327 86.5563C389.877 83.9576 394.242 79.8201 396.098 74.7936C404.277 52.8751 409.536 23.5708 425.62 23.5708M425.654 21.2798C419.021 21.2798 413.488 25.4515 408.745 34C404.793 41.1124 401.734 50.6525 398.744 59.8507C397.198 64.6037 395.617 69.4935 393.967 73.9729C393.073 76.3665 391.493 78.6233 390.083 80.6066C388.674 82.624 387.437 84.3679 387.094 86.0434V86.1118C386.509 89.2577 387.334 92.2668 389.431 94.7971C394.723 101.089 406.958 103.346 416.65 103.346C427.785 103.346 441.394 100.508 446.24 92.5745C447.89 89.8732 449.162 85.3595 445.965 79.273C444.763 76.982 442.151 74.2123 436.686 74.2123C431.703 74.2123 425.654 76.6059 420.568 79.6491C422.767 75.5116 425.345 70.5193 427.785 65.2534C436.308 46.9254 439.367 34.2394 436.858 27.5715C435.861 24.9386 433.971 23.0921 431.393 22.2372C429.435 21.5875 427.51 21.2456 425.654 21.2456V21.2798Z" fill="black"/>
<path d="M412.526 89.2578C417.44 82.2822 438.645 70.3485 443.903 80.3332C457.582 106.321 385.547 107.312 389.362 86.5223C389.912 83.9236 394.276 79.7861 396.132 74.7595C405.102 50.7211 410.567 17.758 430.672 24.3916C447.959 30.0337 412.526 89.2236 412.526 89.2236V89.2578Z" fill="white"/>
<path d="M425.517 28.2554C434.59 29.5206 429.263 49.0455 429.263 49.0455C440.054 23.1947 425.517 28.2554 425.517 28.2554Z" fill="#70D44B"/>
<path d="M398.401 84.8807C403.212 75.4431 409.123 49.5582 409.123 49.5582C409.123 49.5582 398.263 78.7257 392.146 86.4536C386.028 94.1815 408.883 98.3531 421.461 97.7377C421.461 97.7377 393.555 94.3524 398.401 84.9149V84.8807Z" fill="#70D44B"/>
<path d="M409.81 48.4299C410.223 48.4299 410.532 48.088 410.532 47.6777C410.532 47.2673 410.188 46.9596 409.776 46.9596C409.364 46.9596 409.054 47.3015 409.054 47.7119C409.054 48.1222 409.398 48.4299 409.81 48.4299Z" fill="#70D44B"/>
<path d="M494.768 31.1962C501.744 32.7349 509.58 40.0183 512.914 56.3972C517.897 46.1732 530.407 26.6826 541.679 30.6491C557.626 36.1543 549.962 108.27 531.266 106.286C516.557 104.645 524.633 64.2277 526.076 57.6282C524.736 63.578 516.9 96.165 507.174 95.1733C496.348 94.1817 497.654 58.9618 497.895 57.0811C493.565 90.3178 488.925 107.073 476.312 107.483C463.699 108.03 462.256 68.3994 485.935 49.9004C477.206 46.1732 480.402 28.1187 494.802 31.1962H494.768Z" fill="black"/>
<path d="M538.586 30.1019C539.617 30.1019 540.648 30.2729 541.679 30.6148C557.386 36.0517 550.168 106.286 532.022 106.286C531.782 106.286 531.507 106.286 531.266 106.252C516.557 104.611 524.633 64.1934 526.077 57.594C524.771 63.4412 517.141 95.1391 507.587 95.1391C507.449 95.1391 507.312 95.1391 507.14 95.1391C496.314 94.1475 497.62 58.9275 497.861 57.0469C493.53 90.2835 488.891 107.039 476.278 107.449C476.175 107.449 476.106 107.449 476.003 107.449C463.63 107.449 462.359 68.2283 485.901 49.8661C477.859 46.4125 479.955 30.7858 491.606 30.7858C492.602 30.7858 493.633 30.8884 494.768 31.1277C501.744 32.6665 509.58 39.9498 512.914 56.3288C517.45 47.028 528.207 30.0335 538.586 30.0335M538.586 27.8109C528.036 27.8109 518.378 41.9331 513.67 50.0713C512.055 44.7712 509.821 40.326 507.002 36.804C503.669 32.6323 499.613 29.9309 495.249 28.9735C493.977 28.7 492.774 28.5632 491.571 28.5632C485.248 28.5632 480.333 32.5981 479.027 38.8214C478.099 43.2324 479.337 47.4725 482.086 50.1055C473.253 58.0385 469.026 67.989 467.033 75.2039C464.421 84.7099 464.283 94.4552 466.655 101.328C468.545 106.765 471.844 109.774 476.003 109.774C476.106 109.774 476.243 109.774 476.347 109.774C483.495 109.535 488.547 104.953 492.293 95.4127C493.84 91.4803 495.214 86.5564 496.486 80.1963C497.345 85.8725 498.857 91.1726 501.401 94.2842C502.947 96.1991 504.803 97.2591 506.899 97.4301C507.106 97.4301 507.312 97.4301 507.552 97.4301C512.055 97.4301 516.247 92.9165 520.268 83.6841C519.959 93.4294 521.265 100.405 524.118 104.371C525.87 106.799 528.173 108.167 530.957 108.475C531.3 108.509 531.644 108.543 531.953 108.543C536.696 108.543 540.855 105.124 544.36 98.3875C547.178 92.9507 549.447 85.4964 550.89 76.8794C552.643 66.5186 553.021 55.6107 551.921 46.9596C550.615 36.5646 547.316 30.1703 542.332 28.4606C541.095 28.0161 539.824 27.8109 538.518 27.8109H538.586Z" fill="black"/>
<path d="M492.465 25.4514C499.442 26.9901 507.277 34.2734 510.611 50.6524C515.594 40.4284 528.104 20.9377 539.377 24.9043C555.324 30.4095 547.66 102.525 528.963 100.542C514.254 98.9003 522.331 58.4829 523.774 51.8834C522.434 57.8332 514.598 90.4202 504.872 89.4285C494.046 88.4369 495.352 53.217 495.592 51.3363C491.262 84.573 486.622 101.328 474.01 101.738C461.397 102.286 459.953 62.6546 483.633 44.1555C474.903 40.4284 478.099 22.3739 492.499 25.4514H492.465Z" fill="white"/>
<path d="M536.284 24.3913C537.315 24.3913 538.346 24.5623 539.377 24.9043C555.083 30.3411 547.866 100.576 529.72 100.576C529.479 100.576 529.204 100.576 528.963 100.542C514.254 98.9003 522.331 58.4829 523.774 51.8834C522.468 57.7306 514.838 89.4285 505.284 89.4285C505.147 89.4285 505.009 89.4285 504.837 89.4285C494.012 88.4369 495.317 53.217 495.558 51.3363C491.228 84.573 486.588 101.328 473.975 101.738C473.872 101.738 473.803 101.738 473.7 101.738C461.328 101.738 460.056 62.5178 483.598 44.1555C475.556 40.7019 477.653 25.0752 489.303 25.0752C490.3 25.0752 491.331 25.1778 492.465 25.4172C499.442 26.9559 507.277 34.2392 510.611 50.6182C515.148 41.3174 525.905 24.323 536.284 24.323M536.284 22.1003C525.733 22.1003 516.076 36.2225 511.367 44.3607C509.752 39.0606 507.518 34.6154 504.7 31.0934C501.366 26.9217 497.311 24.2204 492.946 23.2629C491.675 22.9894 490.472 22.8526 489.269 22.8526C482.945 22.8526 478.031 26.8875 476.725 33.1108C475.797 37.5219 477.034 41.7619 479.783 44.3949C470.951 52.3279 466.724 62.2784 464.73 69.4934C462.118 78.9993 461.981 88.7446 464.352 95.6177C466.242 101.055 469.542 104.064 473.7 104.064C473.803 104.064 473.941 104.064 474.044 104.064C481.192 103.824 486.244 99.2422 489.991 89.7021C491.537 85.7698 492.912 80.8458 494.183 74.4857C495.043 80.1619 496.555 85.462 499.098 88.5737C500.644 90.4885 502.5 91.5486 504.597 91.7195C504.803 91.7195 505.009 91.7195 505.25 91.7195C509.752 91.7195 513.945 87.2059 517.966 77.9735C517.656 87.7188 518.962 94.6944 521.815 98.6609C523.568 101.089 525.87 102.456 528.654 102.764C528.998 102.798 529.341 102.833 529.651 102.833C534.394 102.833 538.552 99.4132 542.058 92.677C544.876 87.2401 547.144 79.7858 548.587 71.1689C550.34 60.8081 550.718 49.9001 549.618 41.249C548.312 30.854 545.013 24.4597 540.03 22.75C538.793 22.3055 537.521 22.1003 536.215 22.1003H536.284Z" fill="black"/>
<path d="M492.465 25.4514C499.442 26.9901 507.277 34.2734 510.611 50.6524C515.594 40.4284 528.104 20.9377 539.377 24.9043C555.324 30.4095 547.66 102.525 528.963 100.542C514.254 98.9003 522.331 58.4829 523.774 51.8834C522.434 57.8332 514.598 90.4202 504.872 89.4285C494.046 88.4369 495.352 53.217 495.592 51.3363C491.262 84.573 486.622 101.328 474.01 101.738C461.397 102.286 459.953 62.6546 483.633 44.1555C474.903 40.4284 478.099 22.3739 492.499 25.4514H492.465Z" fill="white"/>
<path d="M497.517 49.5926C497.517 49.5926 496.383 83.4789 507.003 85.0861C507.003 85.0861 508.652 85.7016 510.474 82.077C510.474 82.077 505.319 84.5048 497.552 49.5926H497.517Z" fill="#70D44B"/>
<path d="M532.916 28.5974C540.373 26.2038 545.288 45.2841 545.288 45.2841C543.02 22.3057 532.916 28.5974 532.916 28.5974Z" fill="#70D44B"/>
<path d="M501.023 34.1367C501.023 34.1367 498.067 28.8024 491.846 27.8108C485.66 26.8192 482.567 33.1793 482.567 33.1793C490.781 22.8868 501.023 34.1367 501.023 34.1367Z" fill="#70D44B"/>
<path d="M472.016 89.0522C469.885 82.145 469.232 71.0661 476.106 55.2684C476.106 55.2684 467.067 66.7918 467.239 82.0082C467.376 94.2839 470.951 98.2846 474.491 98.4898C475.109 98.5924 475.9 98.4898 476.999 98.0452C481.261 96.2672 482.12 91.48 482.12 91.48C482.086 91.5142 482.017 91.5826 481.983 91.6168C478.718 94.66 473.356 93.2581 472.016 89.018V89.0522Z" fill="#70D44B"/>
<path d="M528.036 89.0868C525.767 81.7692 523.705 69.7329 525.458 52.0887C525.458 52.0887 522.021 66.7922 522.228 82.0086C522.434 97.225 527.795 99.6869 531.988 98.0456C535.081 96.6437 536.284 92.9507 536.284 92.9507C530.854 96.3359 528.345 89.8732 528.07 89.0868H528.036Z" fill="#70D44B"/>
<path d="M477.343 54.448C477.79 54.448 478.134 54.106 478.134 53.6615C478.134 53.217 477.79 52.8751 477.343 52.8751C476.896 52.8751 476.553 53.217 476.553 53.6615C476.553 54.106 476.896 54.448 477.343 54.448Z" fill="#70D44B"/>
<path d="M571.339 33.6921C574.879 34.0341 579.209 37.8638 582.921 37.2141C603.232 33.2134 608.422 42.5484 605.397 51.7466C601.72 64.6036 584.914 57.7648 577.869 49.4214C579.896 53.2511 577.525 60.9448 574.02 64.1249C578.728 59.9532 586.598 57.457 590.963 61.6287C594.984 65.8004 592.303 80.8116 584.089 80.9825C578.9 80.9825 573.367 75.1354 573.367 75.1354C576.391 82.3161 572.37 87.1375 572.37 87.1375C584.949 78.7941 602.407 86.6246 599.383 99.1396C595.843 112.646 576.906 104.132 568.177 103.653C563.812 103.14 562.128 107.483 555.427 106.662C536.146 103.653 547.866 31.8798 571.373 33.7263L571.339 33.6921Z" fill="black"/>
<path d="M570.445 33.6582C570.755 33.6582 571.029 33.6582 571.339 33.6924C574.569 34.0002 578.522 37.2828 582.027 37.2828C582.336 37.2828 582.611 37.2828 582.921 37.2144C586.254 36.5647 589.141 36.257 591.684 36.257C604.675 36.257 607.906 44.0532 605.397 51.7469C603.919 56.876 600.345 58.8935 596.152 58.8935C589.863 58.8935 582.13 54.414 577.903 49.4217C579.931 53.2514 577.559 60.9451 574.054 64.1252C577.044 61.458 581.34 59.4748 585.189 59.4748C587.354 59.4748 589.416 60.1245 590.997 61.629C595.018 65.8007 592.337 80.8119 584.124 80.9828C578.934 80.9828 573.401 75.1357 573.401 75.1357C576.425 82.3164 572.404 87.1378 572.404 87.1378C576.013 84.7442 580.034 83.6842 583.849 83.6842C593.334 83.6842 601.582 90.2494 599.417 99.1741C597.871 105.09 593.403 106.799 588.11 106.799C581.305 106.799 573.126 103.995 568.211 103.688C567.971 103.688 567.73 103.654 567.524 103.654C564.018 103.654 562.163 106.799 557.145 106.799C556.629 106.799 556.08 106.799 555.495 106.697C536.456 103.722 547.659 33.7266 570.548 33.7266M570.445 31.3672C563.297 31.3672 556.836 36.8725 551.68 47.3359C547.453 55.9528 544.532 67.2368 543.638 78.2473C543.02 86.0436 543.535 92.9166 545.082 98.1141C547.453 106.116 551.784 108.407 555.014 108.885H555.048H555.083C555.736 108.954 556.389 109.022 557.042 109.022C560.341 109.022 562.541 107.894 564.293 106.97C565.531 106.321 566.39 105.876 567.421 105.876C567.558 105.876 567.696 105.876 567.868 105.876H567.936H568.005C569.895 105.979 572.473 106.526 575.222 107.141C579.243 107.996 583.814 108.988 588.007 108.988C595.396 108.988 599.933 105.842 601.548 99.6528V99.6186C602.545 95.4469 601.651 91.3437 599.039 88.0268C596.599 84.9494 592.853 82.7609 588.557 81.8377C590.585 80.5725 592.303 78.4525 593.472 75.6144C595.396 70.9982 595.74 64.5355 593.3 60.8767C594.228 61.0135 595.156 61.0819 596.049 61.0819C601.789 61.0819 605.878 57.9702 607.494 52.3282C609.075 47.541 608.559 43.0616 606.119 39.6764C604.194 37.0434 600.105 33.8634 591.581 33.8634C588.832 33.8634 585.704 34.2053 582.371 34.855C582.233 34.855 582.061 34.8892 581.89 34.8892C580.549 34.8892 578.762 34.0685 577.044 33.2479C575.222 32.393 573.332 31.504 571.442 31.333C571.098 31.333 570.72 31.2988 570.377 31.2988L570.445 31.3672ZM580.137 58.0044C580.412 57.0812 580.618 56.1579 580.756 55.2005C581.683 55.9186 582.68 56.6025 583.746 57.218C582.577 57.3547 581.374 57.5941 580.137 58.0044ZM576.631 82.5216C576.7 81.9745 576.769 81.3932 576.769 80.8119C577.456 81.2564 578.144 81.6325 578.797 81.9403C578.04 82.1113 577.319 82.3164 576.597 82.5558L576.631 82.5216Z" fill="black"/>
<path d="M569.036 27.9817C572.576 28.3236 576.907 32.1533 580.618 31.5037C600.93 27.5029 606.119 36.8379 603.095 46.0361C599.417 58.8931 582.612 52.0543 575.566 43.7109C577.594 47.5407 575.223 55.2344 571.717 58.4144C576.425 54.2427 584.296 51.7466 588.66 55.9182C592.681 60.0899 590.001 75.1011 581.787 75.2721C576.597 75.2721 571.064 69.4249 571.064 69.4249C574.088 76.6057 570.067 81.427 570.067 81.427C582.646 73.0837 600.105 80.9141 597.08 93.4292C593.54 106.936 574.604 98.4215 565.875 97.9428C561.51 97.4299 559.826 101.773 553.124 100.952C533.844 97.9428 545.563 26.1694 569.071 28.0159L569.036 27.9817Z" fill="white"/>
<path d="M568.143 27.9475C568.452 27.9475 568.727 27.9475 569.036 27.9817C572.267 28.2894 576.219 31.572 579.725 31.572C580.034 31.572 580.309 31.572 580.618 31.5037C583.952 30.854 586.839 30.5462 589.382 30.5462C602.373 30.5462 605.604 38.3425 603.095 46.0361C601.617 51.1653 598.043 53.1827 593.85 53.1827C587.561 53.1827 579.828 48.7033 575.601 43.7109C577.628 47.5407 575.257 55.2344 571.751 58.4144C574.741 55.7473 579.037 53.764 582.887 53.764C585.052 53.764 587.114 54.4137 588.695 55.9182C592.716 60.0899 590.035 75.1011 581.821 75.2721C576.632 75.2721 571.098 69.4249 571.098 69.4249C574.123 76.6057 570.102 81.427 570.102 81.427C573.71 79.0335 577.731 77.9734 581.546 77.9734C591.032 77.9734 599.28 84.5387 597.115 93.4633C595.568 99.3789 591.1 101.089 585.808 101.089C579.003 101.089 570.823 98.2847 565.909 97.977C565.668 97.977 565.428 97.9428 565.222 97.9428C561.716 97.9428 559.86 101.089 554.842 101.089C554.327 101.089 553.777 101.089 553.193 100.986C534.153 98.0112 545.357 28.0159 568.246 28.0159M568.143 25.6565C560.994 25.6565 554.533 31.1617 549.378 41.6251C545.151 50.242 542.23 61.5261 541.336 72.5366C540.717 80.3328 541.233 87.2058 542.779 92.4033C545.151 100.405 549.481 102.696 552.712 103.174H552.746H552.78C553.433 103.243 554.086 103.311 554.739 103.311C558.039 103.311 560.238 102.183 561.991 101.26C563.228 100.61 564.087 100.165 565.118 100.165C565.256 100.165 565.393 100.165 565.565 100.165H565.634H565.703C567.593 100.268 570.17 100.815 572.92 101.431C576.941 102.285 581.512 103.277 585.705 103.277C593.094 103.277 597.63 100.131 599.246 93.9421V93.9079C600.242 89.7362 599.349 85.6329 596.737 82.3161C594.297 79.2386 590.551 77.0502 586.255 76.1269C588.282 74.8618 590.001 72.7417 591.169 69.9036C593.094 65.2874 593.437 58.8247 590.997 55.166C591.925 55.3027 592.853 55.3711 593.747 55.3711C599.486 55.3711 603.576 52.2595 605.191 46.6174C606.772 41.8303 606.257 37.3508 603.816 33.9656C601.892 31.3327 597.802 28.1526 589.279 28.1526C586.53 28.1526 583.402 28.4946 580.068 29.1443C579.931 29.1443 579.759 29.1785 579.587 29.1785C578.247 29.1785 576.46 28.3578 574.741 27.5371C572.92 26.6823 571.03 25.7932 569.139 25.6223C568.796 25.6223 568.418 25.5881 568.074 25.5881L568.143 25.6565ZM577.834 52.2595C578.109 51.3362 578.316 50.413 578.453 49.4556C579.381 50.1736 580.378 50.8575 581.443 51.473C580.275 51.6098 579.072 51.8491 577.834 52.2595ZM574.329 76.7766C574.398 76.2295 574.466 75.6482 574.466 75.0669C575.154 75.5115 575.841 75.8876 576.494 76.1953C575.738 76.3663 575.016 76.5715 574.295 76.8108L574.329 76.7766Z" fill="black"/>
<path d="M569.036 27.9817C572.576 28.3236 576.907 32.1533 580.618 31.5037C600.93 27.5029 606.119 36.8379 603.095 46.0361C599.417 58.8931 582.612 52.0543 575.566 43.7109C577.594 47.5407 575.223 55.2344 571.717 58.4144C576.425 54.2427 584.296 51.7466 588.66 55.9182C592.681 60.0899 590.001 75.1011 581.787 75.2721C576.597 75.2721 571.064 69.4249 571.064 69.4249C574.088 76.6057 570.067 81.427 570.067 81.427C582.646 73.0837 600.105 80.9141 597.08 93.4292C593.54 106.936 574.604 98.4215 565.875 97.9428C561.51 97.4299 559.826 101.773 553.124 100.952C533.844 97.9428 545.563 26.1694 569.071 28.0159L569.036 27.9817Z" fill="white"/>
<path d="M548.862 56.4994C548.862 56.4994 540.683 92.7451 554.361 96.8142C554.361 96.8142 556.183 97.7717 559.619 94.3523C559.619 94.3523 547.247 93.7026 548.862 56.4994Z" fill="#70D44B"/>
<path d="M587.904 49.6264C587.904 49.6264 602.648 54.3452 601.514 39.8811C601.514 39.8811 599.589 50.9258 587.904 49.6264Z" fill="#70D44B"/>
<path d="M549.687 55.0974C550.134 55.0974 550.512 54.7212 550.512 54.2767C550.512 53.8322 550.134 53.4561 549.687 53.4561C549.241 53.4561 548.862 53.8322 548.862 54.2767C548.862 54.7212 549.241 55.0974 549.687 55.0974Z" fill="#70D44B"/>
</g>
<defs>
<clipPath id="clip0_6_2698">
<rect width="647.728" height="146.043" fill="white" transform="translate(0.182373 0.113525)"/>
</clipPath>
</defs>
</svg>
