<svg width="649" height="147" viewBox="0 0 649 147" fill="none" xmlns="http://www.w3.org/2000/svg">
<g clip-path="url(#clip0_6_2763)">
<path d="M75.116 17.6207H578.912C617.438 17.6207 648.747 48.7374 648.747 87.1031C648.747 119.69 622.146 146.191 589.36 146.191H75.116C39.4767 146.191 10.5048 117.399 10.5048 81.9056C10.5048 46.4122 39.4423 17.6207 75.116 17.6207Z" fill="black"/>
<path d="M67.005 1.54968H570.801C609.327 1.54968 640.636 32.6663 640.636 71.0321C640.636 103.619 614.036 130.12 581.249 130.12H67.005C31.3658 130.085 2.42816 101.294 2.42816 65.8004C2.42816 30.3411 31.3658 1.54968 67.005 1.54968Z" fill="white"/>
<path d="M581.249 131.487H67.0052C30.6098 131.487 0.984863 102.046 0.984863 65.8004C0.984863 29.5546 30.6098 0.113525 67.0052 0.113525H570.801C610.083 0.113525 642.045 31.914 642.045 70.9979C642.045 104.371 614.757 131.487 581.249 131.487ZM67.0052 2.95164C32.1907 2.95164 3.83738 31.1618 3.83738 65.8004C3.83738 100.439 32.1563 128.649 67.0052 128.649H581.249C613.211 128.649 639.193 102.798 639.193 70.9979C639.193 33.487 608.502 2.95164 570.801 2.95164H67.0052Z" fill="black"/>
<path d="M69.4453 81.9055H60.2691L54.7703 95.8909H41.4012L46.8313 81.9055H37.5521L41.5043 71.8866H50.7836L54.3235 62.8252H45.0442L48.9965 52.8063H58.2758L62.6748 41.4539H76.2157L71.7479 52.8063H80.9241L85.3919 41.4539H99.0015L94.5337 52.8063H103.71L99.7576 62.8252H90.4783L86.8697 71.8866H96.2177L92.2654 81.9055H82.9174L77.3155 95.8909H63.9464L69.4453 81.9055ZM76.9374 62.8252H67.7613L64.2214 71.8866H73.3976L76.9374 62.8252Z" fill="black"/>
<path d="M129.864 57.6962H107.971L111.133 41.454H176.707L173.545 57.6962H151.722L144.298 95.891H122.406L129.898 57.6962H129.864Z" fill="black"/>
<path d="M241.73 41.454L239.015 55.1316H205.129L203.96 61.2866H236.816L234.032 75.2719H201.245L199.939 82.0766H234.341L231.626 95.891H175.16L185.814 41.4882H241.765L241.73 41.454Z" fill="black"/>
<path d="M290.533 87.6161H263.623L258.399 95.891H235.476L271.046 41.4882H299.434L314.934 95.891H292.663L290.533 87.6161ZM282.662 57.5594L272.146 74.1778H286.993L282.662 57.5594Z" fill="black"/>
<path d="M330.021 41.454H359.199L367.069 69.3222L385.387 41.454H416.112L405.527 95.8568H383.91L390.371 62.7911L368.307 95.8568H355.728L346.689 62.7911L340.228 95.8568H319.367L330.021 41.454Z" fill="black"/>
<path d="M425.082 97.7721C429.997 90.7965 451.202 78.8628 456.46 88.8475C470.138 114.835 398.104 115.827 401.918 95.0366C402.468 92.4378 406.833 88.3004 408.689 83.2738C417.659 59.2354 423.123 26.2723 443.228 32.9059C460.515 38.5479 425.082 97.7379 425.082 97.7379V97.7721Z" fill="black"/>
<path d="M438.211 32.0851C439.791 32.0851 441.441 32.3586 443.228 32.9399C460.515 38.582 425.082 97.7719 425.082 97.7719C428.656 92.7112 440.823 85.0176 449.208 85.0176C452.37 85.0176 455.016 86.1118 456.425 88.8473C463.78 102.833 446.287 109.603 429.172 109.603C414.497 109.603 400.097 104.645 401.884 95.0706C402.434 92.4719 406.799 88.3344 408.654 83.3078C416.834 61.3894 422.092 32.0851 438.176 32.0851M438.211 29.7941C431.578 29.7941 426.044 33.9658 421.302 42.5143C417.349 49.6267 414.291 59.1668 411.301 68.365C409.754 73.118 408.173 78.0078 406.524 82.4872C405.63 84.8808 404.049 87.1376 402.64 89.1208C401.231 91.1383 399.994 92.8822 399.65 94.5577V94.6261C399.066 97.7719 399.891 100.781 401.987 103.311C407.28 109.603 419.515 111.86 429.206 111.86C440.341 111.86 453.951 109.022 458.797 101.089C460.446 98.3875 461.718 93.8738 458.522 87.7873C457.319 85.4963 454.707 82.7265 449.243 82.7265C444.259 82.7265 438.211 85.1201 433.124 88.1634C435.324 84.0259 437.901 79.0336 440.341 73.7677C448.865 55.4397 451.923 42.7536 449.414 36.0858C448.418 33.4529 446.528 31.6064 443.95 30.7515C441.991 30.1018 440.066 29.7599 438.211 29.7599V29.7941Z" fill="black"/>
<path d="M422.779 92.0273C427.694 85.0517 448.899 73.118 454.157 83.1027C467.835 109.09 395.801 110.082 399.615 89.2918C400.165 86.693 404.53 82.5555 406.386 77.529C415.356 53.4906 420.82 20.5274 440.925 27.1611C458.212 32.8031 422.779 91.9931 422.779 91.9931V92.0273Z" fill="white"/>
<path d="M435.908 26.3403C437.489 26.3403 439.138 26.6138 440.926 27.1951C458.212 32.8372 422.779 92.0271 422.779 92.0271C426.354 86.9664 438.52 79.2727 446.906 79.2727C450.067 79.2727 452.714 80.367 454.123 83.1025C461.477 97.0879 443.984 103.858 426.869 103.858C412.194 103.858 397.794 98.9002 399.581 89.3258C400.131 86.7271 404.496 82.5896 406.352 77.563C414.531 55.6446 419.789 26.3403 435.874 26.3403M435.908 24.0493C429.275 24.0493 423.742 28.221 418.999 36.7695C415.047 43.8818 411.988 53.422 408.998 62.6202C407.451 67.3732 405.871 72.263 404.221 76.7424C403.327 79.136 401.746 81.3928 400.337 83.376C398.928 85.3935 397.691 87.1374 397.347 88.8129V88.8813C396.763 92.0271 397.588 95.0362 399.684 97.5666C404.977 103.858 417.212 106.115 426.904 106.115C438.039 106.115 451.648 103.277 456.494 95.344C458.144 92.6426 459.415 88.129 456.219 82.0425C455.016 79.7515 452.404 76.9817 446.94 76.9817C441.957 76.9817 435.908 79.3753 430.821 82.4186C433.021 78.2811 435.599 73.2888 438.039 68.0229C446.562 49.6948 449.621 37.0088 447.112 30.341C446.115 27.708 444.225 25.8616 441.647 25.0067C439.688 24.357 437.764 24.0151 435.908 24.0151V24.0493Z" fill="black"/>
<path d="M422.779 92.0273C427.694 85.0517 448.899 73.118 454.157 83.1027C467.835 109.09 395.801 110.082 399.615 89.2918C400.165 86.693 404.53 82.5555 406.386 77.529C415.356 53.4906 420.82 20.5274 440.925 27.1611C458.212 32.8031 422.779 91.9931 422.779 91.9931V92.0273Z" fill="white"/>
<path d="M435.77 31.059C444.843 32.3242 439.516 51.849 439.516 51.849C450.308 25.9982 435.77 31.059 435.77 31.059Z" fill="#FCE300"/>
<path d="M408.654 87.6844C413.466 78.2469 419.377 52.3619 419.377 52.3619C419.377 52.3619 408.517 81.5295 402.399 89.2574C396.282 96.9852 419.136 101.157 431.715 100.541C431.715 100.541 403.808 97.1562 408.654 87.7186V87.6844Z" fill="#FCE300"/>
<path d="M420.099 51.2335C420.511 51.2335 420.82 50.8915 420.82 50.4812C420.82 50.0709 420.477 49.7631 420.064 49.7631C419.652 49.7631 419.343 50.1051 419.343 50.5154C419.343 50.9257 419.686 51.2335 420.099 51.2335Z" fill="#FCE300"/>
<path d="M541.588 35.6411C548.565 37.1799 556.401 44.4632 559.734 60.8422C564.718 50.6181 577.228 31.1275 588.5 35.094C604.447 40.5993 596.783 112.715 578.087 110.731C563.377 109.09 571.454 68.6726 572.897 62.0732C571.557 68.0229 563.721 100.61 553.995 99.6183C543.169 98.6267 544.475 63.4067 544.716 61.5261C540.385 94.7627 535.746 111.518 523.133 111.928C510.52 112.475 509.076 72.8443 532.756 54.3453C524.026 50.6181 527.223 32.5637 541.623 35.6411H541.588Z" fill="black"/>
<path d="M585.407 34.5811C586.438 34.5811 587.469 34.7521 588.5 35.094C604.206 40.5309 596.989 110.766 578.843 110.766C578.602 110.766 578.327 110.766 578.087 110.731C563.377 109.09 571.454 68.6726 572.897 62.0732C571.591 67.9204 563.962 99.6183 554.407 99.6183C554.27 99.6183 554.133 99.6183 553.961 99.6183C543.135 98.6267 544.441 63.4067 544.681 61.5261C540.351 94.7627 535.711 111.518 523.099 111.928C522.995 111.928 522.927 111.928 522.824 111.928C510.451 111.928 509.18 72.7075 532.721 54.3453C524.679 50.8917 526.776 35.265 538.427 35.265C539.423 35.265 540.454 35.3676 541.588 35.6069C548.565 37.1457 556.401 44.429 559.734 60.808C564.271 51.5072 575.028 34.5127 585.407 34.5127M585.407 32.2901C574.856 32.2901 565.199 46.4123 560.491 54.5505C558.875 49.2504 556.641 44.8051 553.823 41.2831C550.49 37.1115 546.434 34.4101 542.069 33.4527C540.798 33.1791 539.595 33.0424 538.392 33.0424C532.068 33.0424 527.154 37.0773 525.848 43.3006C524.92 47.7116 526.157 51.9517 528.907 54.5847C520.074 62.5177 515.847 72.4682 513.854 79.6831C511.242 89.1891 511.104 98.9344 513.476 105.807C515.366 111.244 518.665 114.253 522.824 114.253C522.927 114.253 523.064 114.253 523.167 114.253C530.316 114.014 535.368 109.432 539.114 99.8918C540.66 95.9595 542.035 91.0356 543.307 84.6755C544.166 90.3517 545.678 95.6518 548.221 98.7634C549.768 100.678 551.624 101.738 553.72 101.909C553.926 101.909 554.133 101.909 554.373 101.909C558.875 101.909 563.068 97.3957 567.089 88.1633C566.78 97.9086 568.086 104.884 570.938 108.851C572.691 111.278 574.994 112.646 577.778 112.954C578.121 112.988 578.465 113.022 578.774 113.022C583.517 113.022 587.675 109.603 591.181 102.867C593.999 97.4299 596.267 89.9755 597.711 81.3586C599.464 70.9978 599.842 60.0899 598.742 51.4388C597.436 41.0438 594.137 34.6495 589.153 32.9398C587.916 32.4953 586.644 32.2901 585.338 32.2901H585.407Z" fill="black"/>
<path d="M539.286 29.9305C546.262 31.4692 554.098 38.7526 557.432 55.1315C562.415 44.9075 574.925 25.4169 586.198 29.3834C602.144 34.8886 594.48 107.004 575.784 105.021C561.075 103.379 569.151 62.962 570.595 56.3625C569.254 62.3123 561.419 94.8993 551.692 93.9077C540.867 92.916 542.173 57.6961 542.413 55.8154C538.083 89.0521 533.443 105.807 520.83 106.218C508.217 106.765 506.774 67.1337 530.453 48.6347C521.724 44.9075 524.92 26.853 539.32 29.9305H539.286Z" fill="white"/>
<path d="M583.105 28.8364C584.136 28.8364 585.167 29.0073 586.198 29.3493C601.904 34.7861 594.687 105.021 576.54 105.021C576.3 105.021 576.025 105.021 575.784 104.987C561.075 103.345 569.151 62.9279 570.595 56.3284C569.289 62.1756 561.659 93.8735 552.105 93.8735C551.967 93.8735 551.83 93.8735 551.658 93.8735C540.832 92.8819 542.138 57.662 542.379 55.7813C538.049 89.018 533.409 105.773 520.796 106.183C520.693 106.183 520.624 106.183 520.521 106.183C508.149 106.183 506.877 66.9628 530.419 48.6005C522.377 45.1469 524.473 29.5202 536.124 29.5202C537.121 29.5202 538.152 29.6228 539.286 29.8622C546.262 31.4009 554.098 38.6843 557.432 55.0632C561.968 45.7624 572.726 28.768 583.105 28.768M583.105 26.5453C572.554 26.5453 562.896 40.6675 558.188 48.8057C556.573 43.5056 554.339 39.0604 551.521 35.5384C548.187 31.3667 544.132 28.6654 539.767 27.7079C538.495 27.4344 537.292 27.2976 536.09 27.2976C529.766 27.2976 524.851 31.3325 523.545 37.5558C522.617 41.9669 523.855 46.207 526.604 48.8399C517.772 56.7729 513.544 66.7234 511.551 73.9384C508.939 83.4443 508.802 93.1897 511.173 100.063C513.063 105.5 516.363 108.509 520.521 108.509C520.624 108.509 520.762 108.509 520.865 108.509C528.013 108.269 533.065 103.687 536.811 94.1471C538.358 90.2148 539.733 85.2908 541.004 78.9307C541.863 84.6069 543.376 89.907 545.919 93.0187C547.465 94.9335 549.321 95.9936 551.418 96.1645C551.624 96.1645 551.83 96.1645 552.071 96.1645C556.573 96.1645 560.766 91.6509 564.787 82.4185C564.477 92.1638 565.783 99.1394 568.636 103.106C570.389 105.534 572.691 106.901 575.475 107.209C575.819 107.243 576.162 107.278 576.472 107.278C581.214 107.278 585.373 103.858 588.878 97.122C591.697 91.6851 593.965 84.2308 595.408 75.6139C597.161 65.2531 597.539 54.3452 596.439 45.694C595.133 35.299 591.834 28.9047 586.851 27.195C585.613 26.7505 584.342 26.5453 583.036 26.5453H583.105Z" fill="black"/>
<path d="M539.286 29.9305C546.262 31.4692 554.098 38.7526 557.432 55.1315C562.415 44.9075 574.925 25.4169 586.198 29.3834C602.144 34.8886 594.48 107.004 575.784 105.021C561.075 103.379 569.151 62.962 570.595 56.3625C569.254 62.3123 561.419 94.8993 551.692 93.9077C540.867 92.916 542.173 57.6961 542.413 55.8154C538.083 89.0521 533.443 105.807 520.83 106.218C508.217 106.765 506.774 67.1337 530.453 48.6347C521.724 44.9075 524.92 26.853 539.32 29.9305H539.286Z" fill="white"/>
<path d="M544.304 54.0375C544.304 54.0375 543.169 87.9239 553.789 89.531C553.789 89.531 555.439 90.1465 557.26 86.5219C557.26 86.5219 552.105 88.9497 544.338 54.0375H544.304Z" fill="#FCE300"/>
<path d="M579.737 33.0423C587.194 30.6488 592.109 49.7291 592.109 49.7291C589.841 26.7506 579.737 33.0423 579.737 33.0423Z" fill="#FCE300"/>
<path d="M547.843 38.6158C547.843 38.6158 544.888 33.2815 538.667 32.2899C532.481 31.2982 529.388 37.6583 529.388 37.6583C537.602 27.3659 547.843 38.6158 547.843 38.6158Z" fill="#FCE300"/>
<path d="M518.837 93.4971C516.706 86.5899 516.053 75.511 522.927 59.7133C522.927 59.7133 513.888 71.2367 514.06 86.4531C514.197 98.7288 517.772 102.729 521.312 102.935C521.93 103.037 522.721 102.935 523.82 102.49C528.082 100.712 528.941 95.9249 528.941 95.9249C528.907 95.9591 528.838 96.0274 528.804 96.0616C525.539 99.1049 520.177 97.703 518.837 93.4629V93.4971Z" fill="#FCE300"/>
<path d="M574.856 93.5658C572.588 86.2483 570.526 74.212 572.279 56.5678C572.279 56.5678 568.842 71.2713 569.048 86.4876C569.254 101.704 574.616 104.166 578.809 102.525C581.902 101.123 583.105 97.4297 583.105 97.4297C577.675 100.815 575.166 94.3523 574.891 93.5658H574.856Z" fill="#FCE300"/>
<path d="M524.164 58.9271C524.611 58.9271 524.955 58.5851 524.955 58.1406C524.955 57.6961 524.611 57.3541 524.164 57.3541C523.717 57.3541 523.374 57.6961 523.374 58.1406C523.374 58.5851 523.717 58.9271 524.164 58.9271Z" fill="#FCE300"/>
<path d="M485.294 36.4958C488.834 36.8378 493.164 40.6675 496.876 40.0178C517.187 36.0171 522.377 45.3521 519.353 54.5503C515.675 67.4073 498.869 60.5685 491.824 52.2251C493.852 56.0548 491.48 63.7485 487.975 66.9286C492.683 62.7569 500.553 60.2607 504.918 64.4324C508.939 68.6041 506.258 83.6153 498.045 83.7863C492.855 83.7863 487.322 77.9391 487.322 77.9391C490.346 85.1198 486.325 89.9412 486.325 89.9412C498.904 81.5978 516.363 89.4283 513.338 101.943C509.798 115.45 490.862 106.936 482.132 106.457C477.768 105.944 476.084 110.287 469.382 109.466C450.102 106.457 461.821 34.6835 485.328 36.53L485.294 36.4958Z" fill="black"/>
<path d="M484.435 36.4619C484.744 36.4619 485.019 36.4619 485.328 36.4961C488.559 36.8038 492.511 40.0864 496.017 40.0864C496.326 40.0864 496.601 40.0864 496.91 40.0181C500.244 39.3684 503.131 39.0606 505.674 39.0606C518.665 39.0606 521.896 46.8569 519.387 54.5505C517.909 59.6797 514.335 61.6971 510.142 61.6971C503.853 61.6971 496.12 57.2177 491.893 52.2253C493.92 56.0551 491.549 63.7488 488.044 66.9288C491.034 64.2617 495.33 62.2784 499.179 62.2784C501.344 62.2784 503.406 62.9281 504.987 64.4326C509.008 68.6043 506.327 83.6155 498.113 83.7865C492.924 83.7865 487.391 77.9393 487.391 77.9393C490.415 85.1201 486.394 89.9414 486.394 89.9414C490.003 87.5479 494.024 86.4878 497.838 86.4878C507.324 86.4878 515.572 93.0531 513.407 101.978C511.86 107.893 507.393 109.603 502.1 109.603C495.295 109.603 487.116 106.799 482.201 106.491C481.961 106.491 481.72 106.457 481.514 106.457C478.008 106.457 476.152 109.603 471.135 109.603C470.619 109.603 470.069 109.603 469.485 109.5C450.445 106.526 461.649 36.5303 484.538 36.5303M484.435 34.1709C477.286 34.1709 470.825 39.6761 465.67 50.1395C461.443 58.7564 458.522 70.0405 457.628 81.051C457.01 88.8472 457.525 95.7202 459.072 100.918C461.443 108.919 465.773 111.21 469.004 111.689H469.038H469.073C469.726 111.757 470.379 111.826 471.032 111.826C474.331 111.826 476.53 110.697 478.283 109.774C479.52 109.124 480.38 108.68 481.411 108.68C481.548 108.68 481.686 108.68 481.857 108.68H481.926H481.995C483.885 108.782 486.463 109.329 489.212 109.945C493.233 110.8 497.804 111.791 501.997 111.791C509.386 111.791 513.922 108.646 515.538 102.456V102.422C516.534 98.2506 515.641 94.1473 513.029 90.8305C510.589 87.753 506.843 85.5646 502.547 84.6413C504.574 83.3762 506.293 81.2561 507.461 78.418C509.386 73.8018 509.73 67.3391 507.289 63.6804C508.217 63.8171 509.145 63.8855 510.039 63.8855C515.778 63.8855 519.868 60.7739 521.483 55.1318C523.064 50.3447 522.549 45.8652 520.109 42.48C518.184 39.8471 514.094 36.667 505.571 36.667C502.822 36.667 499.694 37.009 496.361 37.6587C496.223 37.6587 496.051 37.6929 495.879 37.6929C494.539 37.6929 492.752 36.8722 491.034 36.0515C489.212 35.1967 487.322 34.3076 485.432 34.1367C485.088 34.1367 484.71 34.1025 484.366 34.1025L484.435 34.1709ZM494.092 60.7739C494.367 59.8506 494.573 58.9274 494.711 57.97C495.639 58.688 496.635 59.3719 497.701 59.9874C496.532 60.1242 495.33 60.3635 494.092 60.7739ZM490.587 85.3252C490.656 84.7781 490.724 84.1968 490.724 83.6155C491.412 84.0601 492.099 84.4362 492.752 84.7439C491.996 84.9149 491.274 85.1201 490.552 85.3594L490.587 85.3252Z" fill="black"/>
<path d="M482.992 30.7854C486.531 31.1273 490.862 34.9571 494.573 34.3074C514.885 30.3067 520.074 39.6416 517.05 48.8399C513.373 61.6968 496.567 54.858 489.521 46.5147C491.549 50.3444 489.178 58.0381 485.672 61.2181C490.381 57.0464 498.251 54.5503 502.616 58.7219C506.637 62.8936 503.956 77.9048 495.742 78.0758C490.552 78.0758 485.019 72.2286 485.019 72.2286C488.044 79.4094 484.023 84.2307 484.023 84.2307C496.601 75.8874 514.06 83.7178 511.036 96.2329C507.496 109.74 488.559 101.225 479.83 100.746C475.465 100.234 473.781 104.576 467.079 103.756C447.799 100.746 459.518 28.9731 483.026 30.8196L482.992 30.7854Z" fill="white"/>
<path d="M482.132 30.7513C482.442 30.7513 482.717 30.7513 483.026 30.7855C486.257 31.0932 490.209 34.3759 493.714 34.3759C494.024 34.3759 494.299 34.3759 494.608 34.3075C497.942 33.6578 500.828 33.35 503.372 33.35C516.363 33.35 519.593 41.1463 517.084 48.84C515.607 53.9691 512.032 55.9865 507.839 55.9865C501.55 55.9865 493.817 51.5071 489.59 46.5148C491.618 50.3445 489.247 58.0382 485.741 61.2182C488.731 58.5511 493.027 56.5678 496.876 56.5678C499.041 56.5678 501.103 57.2175 502.684 58.7221C506.705 62.8937 504.025 77.905 495.811 78.0759C490.621 78.0759 485.088 72.2287 485.088 72.2287C488.112 79.4095 484.091 84.2309 484.091 84.2309C487.7 81.8373 491.721 80.7773 495.536 80.7773C505.021 80.7773 513.269 87.3425 511.104 96.2672C509.558 102.183 505.09 103.892 499.797 103.892C492.993 103.892 484.813 101.089 479.899 100.781C479.658 100.781 479.417 100.747 479.211 100.747C475.706 100.747 473.85 103.892 468.832 103.892C468.317 103.892 467.767 103.892 467.182 103.79C448.143 100.815 459.347 30.8197 482.235 30.8197M482.132 28.4603C474.984 28.4603 468.523 33.9655 463.368 44.4289C459.14 53.0458 456.219 64.3299 455.326 75.3404C454.707 83.1367 455.222 90.0097 456.769 95.2072C459.14 103.209 463.471 105.5 466.701 105.978H466.736H466.77C467.423 106.047 468.076 106.115 468.729 106.115C472.028 106.115 474.228 104.987 475.981 104.063C477.218 103.414 478.077 102.969 479.108 102.969C479.245 102.969 479.383 102.969 479.555 102.969H479.624H479.692C481.582 103.072 484.16 103.619 486.91 104.234C490.931 105.089 495.501 106.081 499.694 106.081C507.083 106.081 511.62 102.935 513.235 96.7459V96.7117C514.232 92.54 513.338 88.4367 510.726 85.1199C508.286 82.0424 504.54 79.854 500.244 78.9308C502.272 77.6656 503.99 75.5456 505.159 72.7075C507.083 68.0912 507.427 61.6286 504.987 57.9698C505.915 58.1066 506.843 58.175 507.736 58.175C513.476 58.175 517.565 55.0633 519.181 49.4213C520.762 44.6341 520.246 40.1547 517.806 36.7695C515.881 34.1365 511.792 30.9565 503.269 30.9565C500.519 30.9565 497.392 31.2984 494.058 31.9481C493.921 31.9481 493.749 31.9823 493.577 31.9823C492.237 31.9823 490.449 31.1616 488.731 30.341C486.91 29.4861 485.019 28.5971 483.129 28.4261C482.785 28.4261 482.407 28.3919 482.064 28.3919L482.132 28.4603ZM491.79 55.0633C492.065 54.1401 492.271 53.2168 492.408 52.2594C493.336 52.9775 494.333 53.6613 495.398 54.2768C494.23 54.4136 493.027 54.653 491.79 55.0633ZM488.284 79.5805C488.353 79.0334 488.422 78.4521 488.422 77.8708C489.109 78.3153 489.796 78.6914 490.449 78.9992C489.693 79.1701 488.972 79.3753 488.25 79.6147L488.284 79.5805Z" fill="black"/>
<path d="M482.992 30.7854C486.531 31.1273 490.862 34.9571 494.573 34.3074C514.885 30.3067 520.074 39.6416 517.05 48.8399C513.373 61.6968 496.567 54.858 489.521 46.5147C491.549 50.3444 489.178 58.0381 485.672 61.2181C490.381 57.0464 498.251 54.5503 502.616 58.7219C506.637 62.8936 503.956 77.9048 495.742 78.0758C490.552 78.0758 485.019 72.2286 485.019 72.2286C488.044 79.4094 484.023 84.2307 484.023 84.2307C496.601 75.8874 514.06 83.7178 511.036 96.2329C507.496 109.74 488.559 101.225 479.83 100.746C475.465 100.234 473.781 104.576 467.079 103.756C447.799 100.746 459.518 28.9731 483.026 30.8196L482.992 30.7854Z" fill="white"/>
<path d="M462.818 59.303C462.818 59.303 454.638 95.5487 468.317 99.6178C468.317 99.6178 470.138 100.575 473.575 97.1558C473.575 97.1558 461.202 96.5062 462.818 59.303Z" fill="#FCE300"/>
<path d="M501.86 52.4301C501.86 52.4301 516.603 57.1489 515.469 42.6848C515.469 42.6848 513.545 53.7295 501.86 52.4301Z" fill="#FCE300"/>
<path d="M463.643 57.901C464.089 57.901 464.467 57.5249 464.467 57.0804C464.467 56.6358 464.089 56.2597 463.643 56.2597C463.196 56.2597 462.818 56.6358 462.818 57.0804C462.818 57.5249 463.196 57.901 463.643 57.901Z" fill="#FCE300"/>
</g>
<defs>
<clipPath id="clip0_6_2763">
<rect width="647.728" height="146.043" fill="white" transform="translate(0.984863 0.113525)"/>
</clipPath>
</defs>
</svg>
